<svg width="1280" height="780" viewBox="0 0 1280 780" fill="none" xmlns="http://www.w3.org/2000/svg">
<g filter="url(#filter0_dddd)">
<rect width="1280" height="780" rx="15" fill="white"/>
</g>
<path d="M720 0H1265C1273.28 0 1280 6.71573 1280 15V765C1280 773.284 1273.28 780 1265 780H720V0Z" fill="#64AEEA"/>
<path d="M99.4349 39.8672V50.9531C99.4349 52.2188 99.1498 53.3281 98.5795 54.2812C98.017 55.2344 97.2006 55.9648 96.1302 56.4727C95.0599 56.9805 93.7943 57.2344 92.3334 57.2344C90.1302 57.2344 88.4193 56.6719 87.2006 55.5469C85.9818 54.4141 85.3724 52.8672 85.3724 50.9062V39.8672H88.9935V50.3555C88.9935 51.6758 89.2592 52.6445 89.7904 53.2617C90.3217 53.8789 91.2006 54.1875 92.4271 54.1875C93.6146 54.1875 94.474 53.8789 95.0052 53.2617C95.5443 52.6367 95.8138 51.6602 95.8138 50.332V39.8672H99.4349ZM110.544 57.2344C109.005 57.2344 107.798 56.6758 106.923 55.5586H106.736C106.861 56.6523 106.923 57.2852 106.923 57.457V62.7656H103.349V43.8984H106.255L106.759 45.5977H106.923C107.759 44.3008 108.997 43.6523 110.638 43.6523C112.185 43.6523 113.396 44.25 114.271 45.4453C115.146 46.6406 115.583 48.3008 115.583 50.4258C115.583 51.8242 115.376 53.0391 114.962 54.0703C114.556 55.1016 113.974 55.8867 113.216 56.4258C112.458 56.9648 111.568 57.2344 110.544 57.2344ZM109.49 46.5117C108.607 46.5117 107.962 46.7852 107.556 47.332C107.15 47.8711 106.939 48.7656 106.923 50.0156V50.4023C106.923 51.8086 107.13 52.8164 107.544 53.4258C107.966 54.0352 108.63 54.3398 109.536 54.3398C111.138 54.3398 111.939 53.0195 111.939 50.3789C111.939 49.0898 111.74 48.125 111.341 47.4844C110.951 46.8359 110.333 46.5117 109.49 46.5117ZM128.931 52.2422C128.931 53.7891 128.372 55.0078 127.255 55.8984C126.146 56.7891 124.599 57.2344 122.615 57.2344C120.786 57.2344 119.169 56.8906 117.763 56.2031V52.8281C118.919 53.3438 119.896 53.707 120.693 53.918C121.497 54.1289 122.232 54.2344 122.896 54.2344C123.693 54.2344 124.302 54.082 124.724 53.7773C125.154 53.4727 125.369 53.0195 125.369 52.418C125.369 52.082 125.275 51.7852 125.087 51.5273C124.9 51.2617 124.622 51.0078 124.255 50.7656C123.896 50.5234 123.158 50.1367 122.04 49.6055C120.994 49.1133 120.208 48.6406 119.685 48.1875C119.161 47.7344 118.744 47.207 118.431 46.6055C118.119 46.0039 117.962 45.3008 117.962 44.4961C117.962 42.9805 118.474 41.7891 119.497 40.9219C120.529 40.0547 121.951 39.6211 123.763 39.6211C124.654 39.6211 125.501 39.7266 126.306 39.9375C127.119 40.1484 127.966 40.4453 128.849 40.8281L127.677 43.6523C126.763 43.2773 126.005 43.0156 125.404 42.8672C124.81 42.7188 124.224 42.6445 123.646 42.6445C122.958 42.6445 122.431 42.8047 122.064 43.125C121.697 43.4453 121.513 43.8633 121.513 44.3789C121.513 44.6992 121.587 44.9805 121.736 45.2227C121.884 45.457 122.119 45.6875 122.439 45.9141C122.767 46.1328 123.536 46.5312 124.747 47.1094C126.349 47.875 127.447 48.6445 128.04 49.418C128.634 50.1836 128.931 51.125 128.931 52.2422ZM137.275 54.3867C137.9 54.3867 138.65 54.25 139.525 53.9766V56.6367C138.634 57.0352 137.54 57.2344 136.244 57.2344C134.814 57.2344 133.771 56.875 133.115 56.1562C132.466 55.4297 132.142 54.3438 132.142 52.8984V46.582H130.431V45.0703L132.4 43.875L133.431 41.1094H135.716V43.8984H139.384V46.582H135.716V52.8984C135.716 53.4062 135.857 53.7812 136.138 54.0234C136.427 54.2656 136.806 54.3867 137.275 54.3867ZM145.033 50.4258C145.033 51.7227 145.244 52.7031 145.665 53.3672C146.095 54.0312 146.79 54.3633 147.751 54.3633C148.704 54.3633 149.388 54.0352 149.802 53.3789C150.224 52.7148 150.435 51.7305 150.435 50.4258C150.435 49.1289 150.224 48.1562 149.802 47.5078C149.38 46.8594 148.689 46.5352 147.728 46.5352C146.775 46.5352 146.087 46.8594 145.665 47.5078C145.244 48.1484 145.033 49.1211 145.033 50.4258ZM154.091 50.4258C154.091 52.5586 153.529 54.2266 152.404 55.4297C151.279 56.6328 149.712 57.2344 147.704 57.2344C146.447 57.2344 145.337 56.9609 144.376 56.4141C143.415 55.8594 142.677 55.0664 142.161 54.0352C141.646 53.0039 141.388 51.8008 141.388 50.4258C141.388 48.2852 141.947 46.6211 143.064 45.4336C144.181 44.2461 145.751 43.6523 147.775 43.6523C149.033 43.6523 150.142 43.9258 151.103 44.4727C152.064 45.0195 152.802 45.8047 153.318 46.8281C153.833 47.8516 154.091 49.0508 154.091 50.4258ZM164.357 43.6523C164.841 43.6523 165.244 43.6875 165.564 43.7578L165.294 47.1094C165.005 47.0312 164.654 46.9922 164.24 46.9922C163.099 46.9922 162.208 47.2852 161.568 47.8711C160.935 48.457 160.619 49.2773 160.619 50.332V57H157.044V43.8984H159.751L160.279 46.1016H160.454C160.861 45.3672 161.408 44.7773 162.095 44.332C162.79 43.8789 163.544 43.6523 164.357 43.6523ZM176.029 57L175.337 55.2188H175.244C174.642 55.9766 174.021 56.5039 173.38 56.8008C172.747 57.0898 171.919 57.2344 170.896 57.2344C169.638 57.2344 168.646 56.875 167.919 56.1562C167.201 55.4375 166.841 54.4141 166.841 53.0859C166.841 51.6953 167.326 50.6719 168.294 50.0156C169.271 49.3516 170.74 48.9844 172.701 48.9141L174.974 48.8438V48.2695C174.974 46.9414 174.294 46.2773 172.935 46.2773C171.888 46.2773 170.658 46.5938 169.244 47.2266L168.06 44.8125C169.568 44.0234 171.24 43.6289 173.076 43.6289C174.833 43.6289 176.181 44.0117 177.119 44.7773C178.056 45.543 178.525 46.707 178.525 48.2695V57H176.029ZM174.974 50.9297L173.591 50.9766C172.552 51.0078 171.779 51.1953 171.271 51.5391C170.763 51.8828 170.509 52.4062 170.509 53.1094C170.509 54.1172 171.087 54.6211 172.244 54.6211C173.072 54.6211 173.732 54.3828 174.224 53.9062C174.724 53.4297 174.974 52.7969 174.974 52.0078V50.9297ZM187.642 54.4336C188.603 54.4336 189.29 54.1602 189.704 53.6133C190.119 53.0586 190.326 52.1641 190.326 50.9297V50.4961C190.326 49.0977 190.107 48.0938 189.669 47.4844C189.24 46.8672 188.544 46.5586 187.583 46.5586C185.904 46.5586 185.064 47.8789 185.064 50.5195C185.064 51.832 185.271 52.8125 185.685 53.4609C186.107 54.1094 186.759 54.4336 187.642 54.4336ZM193.665 57.0234C193.665 58.9062 193.115 60.332 192.013 61.3008C190.919 62.2773 189.286 62.7656 187.115 62.7656C185.201 62.7656 183.568 62.5078 182.216 61.9922V59.1328C183.802 59.8047 185.505 60.1406 187.326 60.1406C189.161 60.1406 190.079 59.1484 190.079 57.1641V56.9062L190.185 55.3008H190.079C189.244 56.5898 188.005 57.2344 186.365 57.2344C184.794 57.2344 183.576 56.6289 182.708 55.418C181.849 54.207 181.419 52.5586 181.419 50.4727C181.419 48.3242 181.865 46.6523 182.755 45.457C183.654 44.2539 184.888 43.6523 186.458 43.6523C188.068 43.6523 189.333 44.293 190.255 45.5742H190.349L190.642 43.8984H193.665V57.0234ZM202.829 46.1953C202.072 46.1953 201.478 46.4375 201.048 46.9219C200.619 47.3984 200.372 48.0781 200.31 48.9609H205.326C205.31 48.0781 205.079 47.3984 204.634 46.9219C204.189 46.4375 203.587 46.1953 202.829 46.1953ZM203.333 57.2344C201.224 57.2344 199.576 56.6523 198.388 55.4883C197.201 54.3242 196.607 52.6758 196.607 50.543C196.607 48.3477 197.154 46.6523 198.247 45.457C199.349 44.2539 200.869 43.6523 202.806 43.6523C204.658 43.6523 206.099 44.1797 207.13 45.2344C208.161 46.2891 208.677 47.7461 208.677 49.6055V51.3398H200.228C200.267 52.3555 200.568 53.1484 201.13 53.7188C201.693 54.2891 202.482 54.5742 203.497 54.5742C204.286 54.5742 205.033 54.4922 205.736 54.3281C206.439 54.1641 207.173 53.9023 207.939 53.543V56.3086C207.314 56.6211 206.646 56.8516 205.935 57C205.224 57.1562 204.357 57.2344 203.333 57.2344Z" fill="#7D7D7D"/>
<circle cx="48.3333" cy="48.3333" r="23.3333" fill="url(#paint0_linear)"/>
<mask id="mask0" mask-type="alpha" maskUnits="userSpaceOnUse" x="720" y="0" width="561" height="780">
<path d="M720.001 0H1265C1273.29 0 1280 6.71573 1280 15V765C1280 773.284 1273.29 780 1265 780H720.001V0Z" fill="#64AEEA"/>
</mask>
<g mask="url(#mask0)">
<path d="M973.439 100.904C987.896 99.6618 994.579 105.643 995 120.134H647.111C645.943 113.724 654.115 101.777 666.341 104.983C673.945 88.172 695.527 80.1467 711.211 89.8325C716.66 66.6487 747.998 52.5567 772.98 74.0989C771.989 61.1756 787.613 43.5372 807.361 49.0416C804.311 23.4156 843.076 3.50911 862.721 35.6388C883.015 12.8926 935.548 15.4446 934.396 66.5234C955.128 69.2573 969.75 76.2608 973.439 100.904Z" fill="white" fill-opacity="0.1"/>
<path d="M1144 164.366C1124.61 157.412 1117.78 166.821 1114 180.366H1339.33C1336.77 165.028 1324.9 157.997 1310.67 164.366C1311.68 147.327 1295.46 136.209 1278.67 139.032C1272.24 99.4214 1202.49 81.1215 1178 132.366C1153.26 130.275 1143.27 146.893 1144 164.366Z" fill="white" fill-opacity="0.1"/>
<path d="M997.667 774.83C997.112 772.914 976.008 761.868 973 784.83H1481C1478.87 768.313 1461.54 756.788 1446.33 767.497C1431.2 738.592 1407.52 735.557 1383.67 752.164C1383.81 739.945 1375.55 733.273 1363 733.497C1355.51 709.835 1336.93 693.5 1306.33 698.164C1282.58 650.935 1219.23 658.986 1208.33 711.497C1186.72 685.226 1151.98 700.908 1148.33 720.164C1136.4 716.046 1130.61 717.237 1121.67 724.164C1105.5 704.764 1078.35 704.529 1071 737.497C1055.45 738.313 1050.01 742.152 1048.33 756.83C1030.3 746.263 1010.05 742.942 997.667 774.83Z" fill="white" fill-opacity="0.1"/>
<path d="M904.667 496.83C904.112 494.914 883.008 483.868 880 506.83H1388C1385.87 490.313 1368.54 478.788 1353.33 489.497C1338.2 460.592 1314.52 457.557 1290.67 474.164C1290.81 461.945 1282.55 455.273 1270 455.497C1262.51 431.835 1243.93 415.5 1213.33 420.164C1189.58 372.935 1126.23 380.986 1115.33 433.497C1093.72 407.226 1058.98 422.908 1055.33 442.164C1043.4 438.046 1037.61 439.237 1028.67 446.164C1012.5 426.764 985.347 426.529 978 459.497C962.445 460.313 957.006 464.152 955.333 478.83C937.301 468.263 917.046 464.942 904.667 496.83Z" fill="white" fill-opacity="0.1"/>
<path d="M639 719.366C619.606 712.412 612.778 721.821 609 735.366H834.333C831.765 720.028 819.902 712.997 805.667 719.366C806.677 702.327 790.463 691.209 773.667 694.032C767.236 654.421 697.493 636.121 673 687.366C648.255 685.275 638.271 701.893 639 719.366Z" fill="white" fill-opacity="0.1"/>
<path d="M613.561 393.904C599.104 392.662 592.421 398.643 592 413.134H939.889C941.057 406.724 932.885 394.777 920.659 397.983C913.055 381.172 891.473 373.147 875.789 382.833C870.34 359.649 839.002 345.557 814.02 367.099C815.011 354.176 799.387 336.537 779.639 342.042C782.689 316.416 743.924 296.509 724.279 328.639C703.985 305.893 651.452 308.445 652.604 359.523C631.872 362.257 617.25 369.261 613.561 393.904Z" fill="white" fill-opacity="0.1"/>
</g>
<g filter="url(#filter1_dddd)">
<rect x="833.001" y="650" width="333.333" height="60" rx="15" fill="white"/>
</g>
<path d="M908.465 676.062C908.465 676.987 908.168 677.745 907.576 678.338C906.983 678.924 906.153 679.298 905.086 679.461V679.539C906.297 679.702 907.211 680.076 907.83 680.662C908.455 681.248 908.767 682.013 908.767 682.957C908.767 684.292 908.263 685.333 907.254 686.082C906.244 686.824 904.828 687.195 903.006 687.195C901.293 687.195 899.907 686.938 898.845 686.424V684.783C899.49 685.089 900.18 685.324 900.916 685.486C901.658 685.643 902.348 685.721 902.986 685.721C904.275 685.721 905.245 685.483 905.896 685.008C906.554 684.533 906.882 683.849 906.882 682.957C906.882 682.104 906.515 681.46 905.779 681.023C905.043 680.581 903.946 680.359 902.488 680.359H900.447V678.855H902.381C903.793 678.855 904.848 678.621 905.545 678.152C906.248 677.677 906.599 677.039 906.599 676.238C906.599 675.548 906.339 675.005 905.818 674.607C905.304 674.204 904.607 674.002 903.728 674.002C902.986 674.002 902.315 674.09 901.716 674.266C901.124 674.441 900.473 674.76 899.763 675.223L898.904 674.002C900.278 673.012 901.892 672.518 903.748 672.518C905.213 672.518 906.365 672.837 907.205 673.475C908.045 674.113 908.465 674.975 908.465 676.062ZM918.162 687L917.82 685.477H917.742C917.208 686.147 916.674 686.603 916.14 686.844C915.613 687.078 914.946 687.195 914.138 687.195C913.084 687.195 912.257 686.919 911.658 686.365C911.059 685.812 910.759 685.031 910.759 684.021C910.759 681.847 912.475 680.708 915.906 680.604L917.722 680.535V679.9C917.722 679.087 917.547 678.488 917.195 678.104C916.843 677.713 916.28 677.518 915.506 677.518C914.939 677.518 914.402 677.602 913.894 677.771C913.393 677.941 912.921 678.13 912.478 678.338L911.941 677.02C912.481 676.733 913.071 676.508 913.709 676.346C914.347 676.183 914.978 676.102 915.603 676.102C916.899 676.102 917.862 676.388 918.494 676.961C919.125 677.534 919.441 678.445 919.441 679.695V687H918.162ZM914.539 685.779C915.522 685.779 916.293 685.516 916.853 684.988C917.42 684.454 917.703 683.699 917.703 682.723V681.756L916.121 681.824C914.89 681.87 913.992 682.065 913.425 682.41C912.866 682.755 912.586 683.299 912.586 684.041C912.586 684.601 912.755 685.031 913.093 685.33C913.438 685.63 913.92 685.779 914.539 685.779ZM927.849 687.195C926.41 687.195 925.304 686.678 924.529 685.643H924.412L924.451 686.043C924.503 686.551 924.529 687.003 924.529 687.4V691.805H922.771V676.277H924.216L924.451 677.742H924.529C924.946 677.156 925.427 676.733 925.974 676.473C926.521 676.212 927.153 676.082 927.869 676.082C929.262 676.082 930.343 676.567 931.111 677.537C931.886 678.501 932.273 679.861 932.273 681.619C932.273 683.37 931.886 684.738 931.111 685.721C930.336 686.704 929.249 687.195 927.849 687.195ZM927.556 677.557C926.495 677.557 925.727 677.856 925.252 678.455C924.783 679.054 924.542 679.995 924.529 681.277V681.619C924.529 683.071 924.77 684.122 925.252 684.773C925.733 685.418 926.515 685.74 927.595 685.74C928.494 685.74 929.194 685.376 929.695 684.646C930.203 683.917 930.457 682.902 930.457 681.6C930.457 680.291 930.203 679.292 929.695 678.602C929.194 677.905 928.481 677.557 927.556 677.557ZM939.636 687.195C938.028 687.195 936.765 686.71 935.847 685.74C934.936 684.764 934.48 683.423 934.48 681.717C934.48 679.998 934.907 678.631 935.759 677.615C936.612 676.593 937.765 676.082 939.216 676.082C940.564 676.082 941.638 676.518 942.439 677.391C943.24 678.257 943.64 679.432 943.64 680.916V681.98H936.297C936.329 683.198 936.638 684.122 937.224 684.754C937.81 685.385 938.64 685.701 939.715 685.701C940.287 685.701 940.831 685.652 941.345 685.555C941.86 685.451 942.462 685.252 943.152 684.959V686.502C942.56 686.756 942.003 686.935 941.482 687.039C940.961 687.143 940.346 687.195 939.636 687.195ZM939.197 677.518C938.357 677.518 937.693 677.788 937.205 678.328C936.716 678.868 936.427 679.62 936.336 680.584H941.795C941.782 679.581 941.55 678.82 941.101 678.299C940.652 677.778 940.017 677.518 939.197 677.518ZM952.908 677.762H948.123V687H946.365V676.277H952.908V677.762ZM956.697 676.277V682.82L956.619 684.715L956.58 685.262L962.322 676.277H964.48V687H962.84V680.682L962.869 679.324L962.918 678.035L957.215 687H955.037V676.277H956.697ZM972.205 687.195C970.662 687.195 969.461 686.723 968.601 685.779C967.742 684.829 967.312 683.468 967.312 681.697C967.312 679.9 967.745 678.517 968.611 677.547C969.483 676.57 970.724 676.082 972.332 676.082C972.853 676.082 973.367 676.137 973.875 676.248C974.389 676.352 974.812 676.489 975.144 676.658L974.607 678.123C973.702 677.785 972.931 677.615 972.293 677.615C971.212 677.615 970.414 677.957 969.9 678.641C969.386 679.318 969.129 680.33 969.129 681.678C969.129 682.973 969.386 683.966 969.9 684.656C970.414 685.34 971.176 685.682 972.185 685.682C973.129 685.682 974.057 685.473 974.968 685.057V686.619C974.226 687.003 973.305 687.195 972.205 687.195ZM984.92 677.762H981.414V687H979.675V677.762H976.218V676.277H984.92V677.762ZM992.127 687.195C990.688 687.195 989.581 686.678 988.806 685.643H988.689L988.728 686.043C988.78 686.551 988.806 687.003 988.806 687.4V691.805H987.049V676.277H988.494L988.728 677.742H988.806C989.223 677.156 989.705 676.733 990.252 676.473C990.799 676.212 991.43 676.082 992.146 676.082C993.539 676.082 994.62 676.567 995.388 677.537C996.163 678.501 996.55 679.861 996.55 681.619C996.55 683.37 996.163 684.738 995.388 685.721C994.614 686.704 993.526 687.195 992.127 687.195ZM991.834 677.557C990.772 677.557 990.004 677.856 989.529 678.455C989.06 679.054 988.819 679.995 988.806 681.277V681.619C988.806 683.071 989.047 684.122 989.529 684.773C990.011 685.418 990.792 685.74 991.873 685.74C992.771 685.74 993.471 685.376 993.972 684.646C994.48 683.917 994.734 682.902 994.734 681.6C994.734 680.291 994.48 679.292 993.972 678.602C993.471 677.905 992.758 677.557 991.834 677.557ZM1001.01 676.277V682.82L1000.94 684.715L1000.9 685.262L1006.64 676.277H1008.8V687H1007.16V680.682L1007.19 679.324L1007.23 678.035L1001.53 687H999.353V676.277H1001.01ZM1017.3 687.195C1015.86 687.195 1014.76 686.678 1013.98 685.643H1013.86L1013.9 686.043C1013.96 686.551 1013.98 687.003 1013.98 687.4V691.805H1012.22V676.277H1013.67L1013.9 677.742H1013.98C1014.4 677.156 1014.88 676.733 1015.43 676.473C1015.97 676.212 1016.61 676.082 1017.32 676.082C1018.72 676.082 1019.8 676.567 1020.56 677.537C1021.34 678.501 1021.73 679.861 1021.73 681.619C1021.73 683.37 1021.34 684.738 1020.56 685.721C1019.79 686.704 1018.7 687.195 1017.3 687.195ZM1017.01 677.557C1015.95 677.557 1015.18 677.856 1014.7 678.455C1014.24 679.054 1014 679.995 1013.98 681.277V681.619C1013.98 683.071 1014.22 684.122 1014.7 684.773C1015.19 685.418 1015.97 685.74 1017.05 685.74C1017.95 685.74 1018.65 685.376 1019.15 684.646C1019.66 683.917 1019.91 682.902 1019.91 681.6C1019.91 680.291 1019.66 679.292 1019.15 678.602C1018.65 677.905 1017.93 677.557 1017.01 677.557ZM1033.85 681.619C1033.85 683.37 1033.4 684.738 1032.52 685.721C1031.63 686.704 1030.41 687.195 1028.85 687.195C1027.88 687.195 1027.02 686.971 1026.27 686.521C1025.52 686.066 1024.94 685.415 1024.54 684.568C1024.14 683.722 1023.93 682.739 1023.93 681.619C1023.93 679.874 1024.37 678.517 1025.24 677.547C1026.11 676.57 1027.34 676.082 1028.91 676.082C1030.42 676.082 1031.62 676.58 1032.51 677.576C1033.4 678.566 1033.85 679.913 1033.85 681.619ZM1025.75 681.619C1025.75 682.967 1026.01 683.992 1026.54 684.695C1027.07 685.392 1027.86 685.74 1028.89 685.74C1029.92 685.74 1030.69 685.392 1031.23 684.695C1031.76 683.992 1032.03 682.967 1032.03 681.619C1032.03 680.271 1031.76 679.259 1031.22 678.582C1030.68 677.898 1029.9 677.557 1028.86 677.557C1026.79 677.557 1025.75 678.911 1025.75 681.619ZM1045.46 678.982C1045.46 679.673 1045.26 680.2 1044.87 680.564C1044.48 680.923 1043.92 681.167 1043.2 681.297V681.385C1044.11 681.508 1044.76 681.779 1045.17 682.195C1045.59 682.605 1045.8 683.159 1045.8 683.855C1045.8 684.871 1045.42 685.649 1044.68 686.189C1043.93 686.73 1042.86 687 1041.46 687H1036.64V676.277H1041.44C1044.12 676.277 1045.46 677.179 1045.46 678.982ZM1044.04 683.758C1044.04 683.159 1043.81 682.739 1043.34 682.498C1042.87 682.257 1042.18 682.137 1041.28 682.137H1038.4V685.584H1041.32C1043.13 685.584 1044.04 684.975 1044.04 683.758ZM1043.74 679.139C1043.74 678.637 1043.54 678.279 1043.15 678.064C1042.77 677.85 1042.19 677.742 1041.4 677.742H1038.4V680.682H1041.08C1042.04 680.682 1042.72 680.564 1043.12 680.33C1043.53 680.089 1043.74 679.692 1043.74 679.139ZM1054.78 687L1054.44 685.477H1054.36C1053.83 686.147 1053.3 686.603 1052.76 686.844C1052.23 687.078 1051.57 687.195 1050.76 687.195C1049.7 687.195 1048.88 686.919 1048.28 686.365C1047.68 685.812 1047.38 685.031 1047.38 684.021C1047.38 681.847 1049.1 680.708 1052.53 680.604L1054.34 680.535V679.9C1054.34 679.087 1054.17 678.488 1053.82 678.104C1053.46 677.713 1052.9 677.518 1052.13 677.518C1051.56 677.518 1051.02 677.602 1050.52 677.771C1050.01 677.941 1049.54 678.13 1049.1 678.338L1048.56 677.02C1049.1 676.733 1049.69 676.508 1050.33 676.346C1050.97 676.183 1051.6 676.102 1052.22 676.102C1053.52 676.102 1054.48 676.388 1055.11 676.961C1055.75 677.534 1056.06 678.445 1056.06 679.695V687H1054.78ZM1051.16 685.779C1052.14 685.779 1052.91 685.516 1053.47 684.988C1054.04 684.454 1054.32 683.699 1054.32 682.723V681.756L1052.74 681.824C1051.51 681.87 1050.61 682.065 1050.05 682.41C1049.49 682.755 1049.21 683.299 1049.21 684.041C1049.21 684.601 1049.38 685.031 1049.71 685.33C1050.06 685.63 1050.54 685.779 1051.16 685.779ZM1066.79 677.762H1063.29V687H1061.55V677.762H1058.09V676.277H1066.79V677.762ZM1070.68 680.682H1073.86C1076.65 680.682 1078.04 681.694 1078.04 683.719C1078.04 684.786 1077.68 685.6 1076.96 686.16C1076.24 686.72 1075.18 687 1073.79 687H1068.92V676.277H1070.68V680.682ZM1076.29 683.816C1076.29 683.243 1076.08 682.82 1075.68 682.547C1075.28 682.273 1074.6 682.137 1073.66 682.137H1070.68V685.584H1073.71C1074.54 685.584 1075.17 685.434 1075.61 685.135C1076.06 684.835 1076.29 684.396 1076.29 683.816ZM1085.11 687.195C1083.57 687.195 1082.37 686.723 1081.51 685.779C1080.65 684.829 1080.22 683.468 1080.22 681.697C1080.22 679.9 1080.66 678.517 1081.52 677.547C1082.39 676.57 1083.63 676.082 1085.24 676.082C1085.76 676.082 1086.28 676.137 1086.78 676.248C1087.3 676.352 1087.72 676.489 1088.05 676.658L1087.52 678.123C1086.61 677.785 1085.84 677.615 1085.2 677.615C1084.12 677.615 1083.32 677.957 1082.81 678.641C1082.3 679.318 1082.04 680.33 1082.04 681.678C1082.04 682.973 1082.3 683.966 1082.81 684.656C1083.32 685.34 1084.09 685.682 1085.1 685.682C1086.04 685.682 1086.97 685.473 1087.88 685.057V686.619C1087.14 687.003 1086.22 687.195 1085.11 687.195ZM1091.09 687H1089.05L1092.11 682.498C1091.29 682.29 1090.67 681.922 1090.24 681.395C1089.82 680.867 1089.61 680.216 1089.61 679.441C1089.61 678.452 1089.94 677.677 1090.61 677.117C1091.28 676.557 1092.21 676.277 1093.41 676.277H1098.21V687H1096.45V682.742H1093.85L1091.09 687ZM1091.31 679.461C1091.31 680.672 1092.18 681.277 1093.92 681.277H1096.45V677.742H1093.59C1092.84 677.742 1092.27 677.889 1091.88 678.182C1091.5 678.475 1091.31 678.901 1091.31 679.461Z" fill="#64AEEA"/>
<path d="M918.819 209H910.841V194.723H918.819V196.305H912.638V200.758H918.458V202.32H912.638V207.418H918.819V209ZM929.874 207.516H934.513V198.277H936.251V207.535H937.813V212.701H936.046V209H921.729V198.277H923.487V207.516H928.106V198.277H929.874V207.516ZM944.415 209.195C942.807 209.195 941.544 208.71 940.626 207.74C939.715 206.764 939.259 205.423 939.259 203.717C939.259 201.998 939.685 200.631 940.538 199.615C941.391 198.593 942.543 198.082 943.995 198.082C945.343 198.082 946.417 198.518 947.218 199.391C948.019 200.257 948.419 201.432 948.419 202.916V203.98H941.075C941.108 205.198 941.417 206.122 942.003 206.754C942.589 207.385 943.419 207.701 944.493 207.701C945.066 207.701 945.61 207.652 946.124 207.555C946.638 207.451 947.241 207.252 947.931 206.959V208.502C947.338 208.756 946.782 208.935 946.261 209.039C945.74 209.143 945.125 209.195 944.415 209.195ZM943.976 199.518C943.136 199.518 942.472 199.788 941.983 200.328C941.495 200.868 941.205 201.62 941.114 202.584H946.573C946.56 201.581 946.329 200.82 945.88 200.299C945.431 199.778 944.796 199.518 943.976 199.518ZM958.097 198.277V202.74H963.917V198.277H965.675V209H963.917V204.225H958.097V209H956.339V198.277H958.097ZM973.653 209.195C972.045 209.195 970.782 208.71 969.864 207.74C968.953 206.764 968.497 205.423 968.497 203.717C968.497 201.998 968.924 200.631 969.776 199.615C970.629 198.593 971.782 198.082 973.233 198.082C974.581 198.082 975.655 198.518 976.456 199.391C977.257 200.257 977.657 201.432 977.657 202.916V203.98H970.313C970.346 205.198 970.655 206.122 971.241 206.754C971.827 207.385 972.657 207.701 973.731 207.701C974.304 207.701 974.848 207.652 975.362 207.555C975.877 207.451 976.479 207.252 977.169 206.959V208.502C976.576 208.756 976.02 208.935 975.499 209.039C974.978 209.143 974.363 209.195 973.653 209.195ZM973.214 199.518C972.374 199.518 971.71 199.788 971.222 200.328C970.733 200.868 970.444 201.62 970.353 202.584H975.812C975.799 201.581 975.567 200.82 975.118 200.299C974.669 199.778 974.034 199.518 973.214 199.518ZM987.784 199.762H984.278V209H982.54V199.762H979.083V198.277H987.784V199.762ZM1001.73 209L1001.39 207.477H1001.31C1000.78 208.147 1000.24 208.603 999.708 208.844C999.181 209.078 998.513 209.195 997.706 209.195C996.651 209.195 995.825 208.919 995.226 208.365C994.627 207.812 994.327 207.031 994.327 206.021C994.327 203.847 996.043 202.708 999.474 202.604L1001.29 202.535V201.9C1001.29 201.087 1001.11 200.488 1000.76 200.104C1000.41 199.713 999.848 199.518 999.073 199.518C998.507 199.518 997.97 199.602 997.462 199.771C996.961 199.941 996.489 200.13 996.046 200.338L995.509 199.02C996.049 198.733 996.638 198.508 997.276 198.346C997.914 198.183 998.546 198.102 999.171 198.102C1000.47 198.102 1001.43 198.388 1002.06 198.961C1002.69 199.534 1003.01 200.445 1003.01 201.695V209H1001.73ZM998.106 207.779C999.09 207.779 999.861 207.516 1000.42 206.988C1000.99 206.454 1001.27 205.699 1001.27 204.723V203.756L999.688 203.824C998.458 203.87 997.56 204.065 996.993 204.41C996.433 204.755 996.153 205.299 996.153 206.041C996.153 206.601 996.323 207.031 996.661 207.33C997.006 207.63 997.488 207.779 998.106 207.779ZM1012.68 198.277H1014.6L1010.02 203.443L1014.98 209H1012.94L1008.1 203.561V209H1006.34V198.277H1008.1V203.482L1012.68 198.277ZM1023.26 198.277H1025.19L1020.61 203.443L1025.57 209H1023.53L1018.68 203.561V209H1016.92V198.277H1018.68V203.482L1023.26 198.277ZM1034.13 209L1033.79 207.477H1033.71C1033.18 208.147 1032.64 208.603 1032.11 208.844C1031.58 209.078 1030.92 209.195 1030.11 209.195C1029.05 209.195 1028.23 208.919 1027.63 208.365C1027.03 207.812 1026.73 207.031 1026.73 206.021C1026.73 203.847 1028.44 202.708 1031.88 202.604L1033.69 202.535V201.9C1033.69 201.087 1033.52 200.488 1033.17 200.104C1032.81 199.713 1032.25 199.518 1031.48 199.518C1030.91 199.518 1030.37 199.602 1029.86 199.771C1029.36 199.941 1028.89 200.13 1028.45 200.338L1027.91 199.02C1028.45 198.733 1029.04 198.508 1029.68 198.346C1030.32 198.183 1030.95 198.102 1031.57 198.102C1032.87 198.102 1033.83 198.388 1034.46 198.961C1035.1 199.534 1035.41 200.445 1035.41 201.695V209H1034.13ZM1030.51 207.779C1031.49 207.779 1032.26 207.516 1032.82 206.988C1033.39 206.454 1033.67 205.699 1033.67 204.723V203.756L1032.09 203.824C1030.86 203.87 1029.96 204.065 1029.4 204.41C1028.84 204.755 1028.56 205.299 1028.56 206.041C1028.56 206.601 1028.72 207.031 1029.06 207.33C1029.41 207.63 1029.89 207.779 1030.51 207.779ZM1037.06 198.277H1038.95L1041.26 204.381C1041.75 205.709 1042.05 206.682 1042.16 207.301H1042.24C1042.3 207.06 1042.43 206.611 1042.64 205.953C1042.85 205.289 1043.02 204.758 1043.17 204.361L1045.34 198.277H1047.24L1042.62 210.484C1042.17 211.669 1041.64 212.519 1041.02 213.033C1040.4 213.548 1039.63 213.805 1038.72 213.805C1038.23 213.805 1037.75 213.749 1037.27 213.639V212.242C1037.59 212.32 1037.98 212.359 1038.44 212.359C1039 212.359 1039.47 212.203 1039.86 211.891C1040.25 211.585 1040.57 211.109 1040.82 210.465L1041.38 209.039L1037.06 198.277ZM1050.69 198.277V202.74H1056.51V198.277H1058.27V209H1056.51V204.225H1050.69V209H1048.94V198.277H1050.69ZM1069.09 199.762H1065.59V209H1063.85V199.762H1060.39V198.277H1069.09V199.762ZM1077.84 209L1077.5 207.477H1077.42C1076.89 208.147 1076.36 208.603 1075.82 208.844C1075.29 209.078 1074.63 209.195 1073.82 209.195C1072.76 209.195 1071.94 208.919 1071.34 208.365C1070.74 207.812 1070.44 207.031 1070.44 206.021C1070.44 203.847 1072.16 202.708 1075.59 202.604L1077.4 202.535V201.9C1077.4 201.087 1077.23 200.488 1076.88 200.104C1076.52 199.713 1075.96 199.518 1075.19 199.518C1074.62 199.518 1074.08 199.602 1073.58 199.771C1073.07 199.941 1072.6 200.13 1072.16 200.338L1071.62 199.02C1072.16 198.733 1072.75 198.508 1073.39 198.346C1074.03 198.183 1074.66 198.102 1075.28 198.102C1076.58 198.102 1077.54 198.388 1078.17 198.961C1078.81 199.534 1079.12 200.445 1079.12 201.695V209H1077.84ZM1074.22 207.779C1075.2 207.779 1075.97 207.516 1076.53 206.988C1077.1 206.454 1077.38 205.699 1077.38 204.723V203.756L1075.8 203.824C1074.57 203.87 1073.67 204.065 1073.11 204.41C1072.55 204.755 1072.27 205.299 1072.27 206.041C1072.27 206.601 1072.44 207.031 1072.77 207.33C1073.12 207.63 1073.6 207.779 1074.22 207.779ZM1084.56 204.957V204.596C1084.56 204.225 1084.58 203.889 1084.63 203.59C1084.68 203.29 1084.77 203.01 1084.89 202.75C1085.02 202.49 1085.2 202.236 1085.41 201.988C1085.63 201.734 1085.9 201.471 1086.22 201.197C1086.53 200.93 1086.8 200.689 1087.02 200.475C1087.24 200.253 1087.42 200.032 1087.56 199.811C1087.7 199.583 1087.81 199.342 1087.87 199.088C1087.94 198.827 1087.98 198.525 1087.98 198.18C1087.98 197.867 1087.93 197.584 1087.83 197.33C1087.74 197.07 1087.59 196.848 1087.4 196.666C1087.22 196.477 1086.99 196.334 1086.71 196.236C1086.44 196.132 1086.12 196.08 1085.75 196.08C1085.21 196.08 1084.7 196.165 1084.21 196.334C1083.72 196.503 1083.25 196.699 1082.79 196.92L1082.18 195.504C1082.71 195.23 1083.28 194.999 1083.89 194.811C1084.5 194.615 1085.12 194.518 1085.75 194.518C1086.36 194.518 1086.9 194.602 1087.38 194.771C1087.87 194.934 1088.29 195.172 1088.62 195.484C1088.96 195.797 1089.22 196.181 1089.41 196.637C1089.59 197.086 1089.68 197.594 1089.68 198.16C1089.68 198.596 1089.63 198.987 1089.54 199.332C1089.46 199.671 1089.33 199.986 1089.15 200.279C1088.98 200.572 1088.76 200.855 1088.5 201.129C1088.24 201.402 1087.93 201.692 1087.58 201.998C1087.24 202.291 1086.96 202.548 1086.75 202.77C1086.53 202.984 1086.36 203.196 1086.24 203.404C1086.12 203.606 1086.03 203.814 1085.99 204.029C1085.94 204.244 1085.92 204.495 1085.92 204.781V204.957H1084.56ZM1084.09 207.916C1084.09 207.669 1084.13 207.46 1084.19 207.291C1084.26 207.115 1084.34 206.975 1084.45 206.871C1084.56 206.76 1084.69 206.682 1084.84 206.637C1084.99 206.585 1085.16 206.559 1085.33 206.559C1085.5 206.559 1085.66 206.585 1085.81 206.637C1085.97 206.682 1086.1 206.76 1086.21 206.871C1086.32 206.975 1086.41 207.115 1086.48 207.291C1086.54 207.46 1086.57 207.669 1086.57 207.916C1086.57 208.157 1086.54 208.365 1086.48 208.541C1086.41 208.71 1086.32 208.85 1086.21 208.961C1086.1 209.072 1085.97 209.153 1085.81 209.205C1085.66 209.257 1085.5 209.283 1085.33 209.283C1085.16 209.283 1084.99 209.257 1084.84 209.205C1084.69 209.153 1084.56 209.072 1084.45 208.961C1084.34 208.85 1084.26 208.71 1084.19 208.541C1084.13 208.365 1084.09 208.157 1084.09 207.916ZM860.284 223.1C858.748 223.1 857.54 223.614 856.661 224.643C855.782 225.671 855.343 227.077 855.343 228.861C855.343 230.704 855.769 232.126 856.622 233.129C857.475 234.125 858.689 234.623 860.265 234.623C861.28 234.623 862.423 234.434 863.692 234.057V235.619C863.087 235.84 862.504 235.99 861.944 236.068C861.384 236.153 860.74 236.195 860.011 236.195C857.908 236.195 856.287 235.557 855.147 234.281C854.015 232.999 853.448 231.186 853.448 228.842C853.448 227.37 853.718 226.081 854.259 224.975C854.806 223.868 855.597 223.015 856.632 222.416C857.674 221.817 858.897 221.518 860.304 221.518C861.814 221.518 863.129 221.798 864.249 222.357L863.526 223.881C862.387 223.36 861.306 223.1 860.284 223.1ZM872.901 225.277H874.825L870.245 230.443L875.206 236H873.165L868.321 230.561V236H866.563V225.277H868.321V230.482L872.901 225.277ZM886.271 230.619C886.271 232.37 885.828 233.738 884.942 234.721C884.057 235.704 882.833 236.195 881.271 236.195C880.3 236.195 879.441 235.971 878.692 235.521C877.944 235.066 877.368 234.415 876.964 233.568C876.56 232.722 876.358 231.739 876.358 230.619C876.358 228.874 876.795 227.517 877.667 226.547C878.539 225.57 879.763 225.082 881.339 225.082C882.849 225.082 884.047 225.58 884.933 226.576C885.825 227.566 886.271 228.913 886.271 230.619ZM878.175 230.619C878.175 231.967 878.438 232.992 878.966 233.695C879.5 234.392 880.284 234.74 881.319 234.74C882.341 234.74 883.119 234.392 883.653 233.695C884.187 232.992 884.454 231.967 884.454 230.619C884.454 229.271 884.184 228.259 883.644 227.582C883.11 226.898 882.325 226.557 881.29 226.557C879.213 226.557 878.175 227.911 878.175 230.619ZM894.142 236.195C892.703 236.195 891.596 235.678 890.821 234.643H890.704L890.743 235.043C890.795 235.551 890.821 236.003 890.821 236.4V240.805H889.063V225.277H890.509L890.743 226.742H890.821C891.238 226.156 891.72 225.733 892.267 225.473C892.813 225.212 893.445 225.082 894.161 225.082C895.554 225.082 896.635 225.567 897.403 226.537C898.178 227.501 898.565 228.861 898.565 230.619C898.565 232.37 898.178 233.738 897.403 234.721C896.629 235.704 895.541 236.195 894.142 236.195ZM893.849 226.557C892.787 226.557 892.019 226.856 891.544 227.455C891.075 228.054 890.834 228.995 890.821 230.277V230.619C890.821 232.071 891.062 233.122 891.544 233.773C892.026 234.418 892.807 234.74 893.888 234.74C894.786 234.74 895.486 234.376 895.987 233.646C896.495 232.917 896.749 231.902 896.749 230.6C896.749 229.291 896.495 228.292 895.987 227.602C895.486 226.905 894.773 226.557 893.849 226.557ZM905.929 236.195C904.321 236.195 903.058 235.71 902.14 234.74C901.228 233.764 900.772 232.423 900.772 230.717C900.772 228.998 901.199 227.631 902.052 226.615C902.905 225.593 904.057 225.082 905.509 225.082C906.856 225.082 907.931 225.518 908.731 226.391C909.532 227.257 909.933 228.432 909.933 229.916V230.98H902.589C902.621 232.198 902.931 233.122 903.517 233.754C904.103 234.385 904.933 234.701 906.007 234.701C906.58 234.701 907.123 234.652 907.638 234.555C908.152 234.451 908.754 234.252 909.444 233.959V235.502C908.852 235.756 908.295 235.935 907.774 236.039C907.254 236.143 906.638 236.195 905.929 236.195ZM905.489 226.518C904.649 226.518 903.985 226.788 903.497 227.328C903.009 227.868 902.719 228.62 902.628 229.584H908.087C908.074 228.581 907.843 227.82 907.394 227.299C906.944 226.778 906.31 226.518 905.489 226.518ZM917.218 236.195C915.61 236.195 914.347 235.71 913.429 234.74C912.517 233.764 912.062 232.423 912.062 230.717C912.062 228.998 912.488 227.631 913.341 226.615C914.194 225.593 915.346 225.082 916.798 225.082C918.146 225.082 919.22 225.518 920.021 226.391C920.821 227.257 921.222 228.432 921.222 229.916V230.98H913.878C913.91 232.198 914.22 233.122 914.806 233.754C915.392 234.385 916.222 234.701 917.296 234.701C917.869 234.701 918.412 234.652 918.927 234.555C919.441 234.451 920.043 234.252 920.733 233.959V235.502C920.141 235.756 919.584 235.935 919.063 236.039C918.543 236.143 917.927 236.195 917.218 236.195ZM916.778 226.518C915.938 226.518 915.274 226.788 914.786 227.328C914.298 227.868 914.008 228.62 913.917 229.584H919.376C919.363 228.581 919.132 227.82 918.683 227.299C918.233 226.778 917.599 226.518 916.778 226.518ZM930.899 236H929.142V225.277H938.204V236H936.446V226.781H930.899V236ZM946.7 236.195C945.261 236.195 944.155 235.678 943.38 234.643H943.263L943.302 235.043C943.354 235.551 943.38 236.003 943.38 236.4V240.805H941.622V225.277H943.067L943.302 226.742H943.38C943.797 226.156 944.278 225.733 944.825 225.473C945.372 225.212 946.004 225.082 946.72 225.082C948.113 225.082 949.194 225.567 949.962 226.537C950.737 227.501 951.124 228.861 951.124 230.619C951.124 232.37 950.737 233.738 949.962 234.721C949.187 235.704 948.1 236.195 946.7 236.195ZM946.407 226.557C945.346 226.557 944.578 226.856 944.103 227.455C943.634 228.054 943.393 228.995 943.38 230.277V230.619C943.38 232.071 943.621 233.122 944.103 233.773C944.584 234.418 945.366 234.74 946.446 234.74C947.345 234.74 948.045 234.376 948.546 233.646C949.054 232.917 949.308 231.902 949.308 230.6C949.308 229.291 949.054 228.292 948.546 227.602C948.045 226.905 947.332 226.557 946.407 226.557ZM955.587 225.277V231.82L955.509 233.715L955.47 234.262L961.212 225.277H963.37V236H961.729V229.682L961.759 228.324L961.808 227.035L956.104 236H953.927V225.277H955.587ZM971.095 236.195C969.552 236.195 968.351 235.723 967.491 234.779C966.632 233.829 966.202 232.468 966.202 230.697C966.202 228.9 966.635 227.517 967.501 226.547C968.373 225.57 969.614 225.082 971.222 225.082C971.743 225.082 972.257 225.137 972.765 225.248C973.279 225.352 973.702 225.489 974.034 225.658L973.497 227.123C972.592 226.785 971.821 226.615 971.183 226.615C970.102 226.615 969.304 226.957 968.79 227.641C968.276 228.318 968.019 229.33 968.019 230.678C968.019 231.973 968.276 232.966 968.79 233.656C969.304 234.34 970.066 234.682 971.075 234.682C972.019 234.682 972.947 234.473 973.858 234.057V235.619C973.116 236.003 972.195 236.195 971.095 236.195ZM985.724 230.619C985.724 232.37 985.281 233.738 984.396 234.721C983.51 235.704 982.286 236.195 980.724 236.195C979.754 236.195 978.894 235.971 978.146 235.521C977.397 235.066 976.821 234.415 976.417 233.568C976.013 232.722 975.812 231.739 975.812 230.619C975.812 228.874 976.248 227.517 977.12 226.547C977.993 225.57 979.216 225.082 980.792 225.082C982.302 225.082 983.5 225.58 984.386 226.576C985.278 227.566 985.724 228.913 985.724 230.619ZM977.628 230.619C977.628 231.967 977.892 232.992 978.419 233.695C978.953 234.392 979.737 234.74 980.772 234.74C981.795 234.74 982.573 234.392 983.106 233.695C983.64 232.992 983.907 231.967 983.907 230.619C983.907 229.271 983.637 228.259 983.097 227.582C982.563 226.898 981.778 226.557 980.743 226.557C978.666 226.557 977.628 227.911 977.628 230.619ZM993.077 236.195C991.469 236.195 990.206 235.71 989.288 234.74C988.377 233.764 987.921 232.423 987.921 230.717C987.921 228.998 988.347 227.631 989.2 226.615C990.053 225.593 991.205 225.082 992.657 225.082C994.005 225.082 995.079 225.518 995.88 226.391C996.681 227.257 997.081 228.432 997.081 229.916V230.98H989.737C989.77 232.198 990.079 233.122 990.665 233.754C991.251 234.385 992.081 234.701 993.155 234.701C993.728 234.701 994.272 234.652 994.786 234.555C995.3 234.451 995.903 234.252 996.593 233.959V235.502C996 235.756 995.444 235.935 994.923 236.039C994.402 236.143 993.787 236.195 993.077 236.195ZM992.638 226.518C991.798 226.518 991.134 226.788 990.646 227.328C990.157 227.868 989.868 228.62 989.776 229.584H995.235C995.222 228.581 994.991 227.82 994.542 227.299C994.093 226.778 993.458 226.518 992.638 226.518ZM1009.33 239.721H1007.63V236H1000.17V239.721H998.487V234.516H999.347C1000.21 233.311 1000.89 231.918 1001.37 230.336C1001.85 228.747 1002.1 227.061 1002.13 225.277H1007.76V234.516H1009.33V239.721ZM1006.07 234.516V226.664H1003.68C1003.58 228.103 1003.31 229.548 1002.84 231C1002.39 232.445 1001.83 233.617 1001.16 234.516H1006.07ZM1013.09 225.277V231.82L1013.01 233.715L1012.97 234.262L1018.71 225.277H1020.87V236H1019.23V229.682L1019.26 228.324L1019.31 227.035L1013.6 236H1011.43V225.277H1013.09ZM1026.06 225.277V229.74H1031.88V225.277H1033.63V236H1031.88V231.225H1026.06V236H1024.3V225.277H1026.06ZM1037.72 236H1035.67L1038.73 231.498C1037.91 231.29 1037.29 230.922 1036.87 230.395C1036.44 229.867 1036.23 229.216 1036.23 228.441C1036.23 227.452 1036.57 226.677 1037.24 226.117C1037.91 225.557 1038.84 225.277 1040.03 225.277H1044.83V236H1043.08V231.742H1040.47L1037.72 236ZM1037.93 228.461C1037.93 229.672 1038.8 230.277 1040.55 230.277H1043.08V226.742H1040.22C1039.47 226.742 1038.9 226.889 1038.51 227.182C1038.12 227.475 1037.93 227.901 1037.93 228.461ZM1049.9 225.277V231.82L1049.83 233.715L1049.79 234.262L1055.53 225.277H1057.69V236H1056.05V229.682L1056.08 228.324L1056.12 227.035L1050.42 236H1048.24V225.277H1049.9ZM1052.93 223.881C1051.68 223.881 1050.77 223.643 1050.2 223.168C1049.63 222.693 1049.31 221.918 1049.25 220.844H1050.89C1050.95 221.521 1051.12 221.993 1051.42 222.26C1051.72 222.527 1052.23 222.66 1052.97 222.66C1053.64 222.66 1054.14 222.517 1054.45 222.23C1054.78 221.944 1054.98 221.482 1055.05 220.844H1056.71C1056.61 221.898 1056.26 222.67 1055.65 223.158C1055.03 223.64 1054.13 223.881 1052.93 223.881ZM1065.41 236.195C1063.87 236.195 1062.67 235.723 1061.81 234.779C1060.95 233.829 1060.52 232.468 1060.52 230.697C1060.52 228.9 1060.95 227.517 1061.82 226.547C1062.69 225.57 1063.93 225.082 1065.54 225.082C1066.06 225.082 1066.57 225.137 1067.08 225.248C1067.6 225.352 1068.02 225.489 1068.35 225.658L1067.81 227.123C1066.91 226.785 1066.14 226.615 1065.5 226.615C1064.42 226.615 1063.62 226.957 1063.11 227.641C1062.59 228.318 1062.33 229.33 1062.33 230.678C1062.33 231.973 1062.59 232.966 1063.11 233.656C1063.62 234.34 1064.38 234.682 1065.39 234.682C1066.34 234.682 1067.26 234.473 1068.17 234.057V235.619C1067.43 236.003 1066.51 236.195 1065.41 236.195ZM1071.39 236H1069.35L1072.4 231.498C1071.58 231.29 1070.96 230.922 1070.54 230.395C1070.11 229.867 1069.9 229.216 1069.9 228.441C1069.9 227.452 1070.24 226.677 1070.91 226.117C1071.58 225.557 1072.51 225.277 1073.7 225.277H1078.51V236H1076.75V231.742H1074.14L1071.39 236ZM1071.6 228.461C1071.6 229.672 1072.47 230.277 1074.22 230.277H1076.75V226.742H1073.89C1073.14 226.742 1072.57 226.889 1072.18 227.182C1071.79 227.475 1071.6 227.901 1071.6 228.461ZM1093.45 225.277H1095.37L1090.79 230.443L1095.75 236H1093.71L1088.87 230.561V236H1087.11V225.277H1088.87V230.482L1093.45 225.277ZM1104.65 225.277V229.74H1110.47V225.277H1112.23V236H1110.47V231.225H1104.65V236H1102.89V225.277H1104.65ZM1122.27 236L1121.92 234.477H1121.85C1121.31 235.147 1120.78 235.603 1120.25 235.844C1119.72 236.078 1119.05 236.195 1118.24 236.195C1117.19 236.195 1116.36 235.919 1115.76 235.365C1115.16 234.812 1114.86 234.031 1114.86 233.021C1114.86 230.847 1116.58 229.708 1120.01 229.604L1121.83 229.535V228.9C1121.83 228.087 1121.65 227.488 1121.3 227.104C1120.95 226.713 1120.39 226.518 1119.61 226.518C1119.04 226.518 1118.51 226.602 1118 226.771C1117.5 226.941 1117.03 227.13 1116.58 227.338L1116.05 226.02C1116.59 225.733 1117.18 225.508 1117.81 225.346C1118.45 225.183 1119.08 225.102 1119.71 225.102C1121 225.102 1121.97 225.388 1122.6 225.961C1123.23 226.534 1123.55 227.445 1123.55 228.695V236H1122.27ZM1118.64 234.779C1119.63 234.779 1120.4 234.516 1120.96 233.988C1121.52 233.454 1121.81 232.699 1121.81 231.723V230.756L1120.23 230.824C1119 230.87 1118.1 231.065 1117.53 231.41C1116.97 231.755 1116.69 232.299 1116.69 233.041C1116.69 233.601 1116.86 234.031 1117.2 234.33C1117.54 234.63 1118.03 234.779 1118.64 234.779ZM1132.58 234.32C1132.77 233.611 1133.02 232.878 1133.32 232.123L1136.11 225.277H1138.38V236H1136.8V227.162C1136.57 227.872 1136.3 228.617 1136 229.398L1133.32 236H1131.9L1129.22 229.359C1129.09 229.047 1128.96 228.705 1128.83 228.334C1128.71 227.963 1128.58 227.572 1128.46 227.162V236H1126.88V225.277H1129.07L1131.78 231.859C1132.02 232.471 1132.29 233.292 1132.58 234.32ZM1144.86 231.957H1143.68L1143.18 221.723H1145.36L1144.86 231.957ZM1143.02 234.916C1143.02 234.669 1143.05 234.46 1143.12 234.291C1143.18 234.115 1143.27 233.975 1143.38 233.871C1143.49 233.76 1143.62 233.682 1143.77 233.637C1143.92 233.585 1144.08 233.559 1144.26 233.559C1144.43 233.559 1144.59 233.585 1144.74 233.637C1144.89 233.682 1145.03 233.76 1145.14 233.871C1145.25 233.975 1145.34 234.115 1145.4 234.291C1145.47 234.46 1145.5 234.669 1145.5 234.916C1145.5 235.157 1145.47 235.365 1145.4 235.541C1145.34 235.71 1145.25 235.85 1145.14 235.961C1145.03 236.072 1144.89 236.153 1144.74 236.205C1144.59 236.257 1144.43 236.283 1144.26 236.283C1144.08 236.283 1143.92 236.257 1143.77 236.205C1143.62 236.153 1143.49 236.072 1143.38 235.961C1143.27 235.85 1143.18 235.71 1143.12 235.541C1143.05 235.365 1143.02 235.157 1143.02 234.916Z" fill="white"/>
<path d="M855.563 110.016H852.813V104H837.095V110.016H834.345V101.438H836.11C837.652 98.8125 838.985 95.6302 840.11 91.8906C841.235 88.151 841.897 84.5729 842.095 81.1562H852.657V101.438H855.563V110.016ZM849.798 101.438V83.75H844.626C844.428 86.3438 843.793 89.3698 842.72 92.8281C841.657 96.2865 840.465 99.1562 839.142 101.438H849.798ZM873.907 95.3906C873.907 98.1927 873.199 100.38 871.782 101.953C870.366 103.526 868.407 104.312 865.907 104.312C864.355 104.312 862.98 103.953 861.782 103.234C860.584 102.505 859.662 101.464 859.017 100.109C858.371 98.7552 858.048 97.1823 858.048 95.3906C858.048 92.599 858.746 90.4271 860.142 88.875C861.537 87.3125 863.496 86.5312 866.017 86.5312C868.433 86.5312 870.35 87.3281 871.767 88.9219C873.194 90.5052 873.907 92.6615 873.907 95.3906ZM860.954 95.3906C860.954 97.5469 861.376 99.1875 862.22 100.312C863.074 101.427 864.329 101.984 865.985 101.984C867.621 101.984 868.866 101.427 869.72 100.312C870.574 99.1875 871.001 97.5469 871.001 95.3906C871.001 93.2344 870.569 91.6146 869.704 90.5312C868.85 89.4375 867.595 88.8906 865.938 88.8906C862.616 88.8906 860.954 91.0573 860.954 95.3906ZM877.485 93.7031C877.485 89.8802 878.058 86.9375 879.204 84.875C880.36 82.8021 882.173 81.4948 884.642 80.9531C886.965 80.4844 889.558 80.0052 892.423 79.5156L892.907 81.9844L891.048 82.2812C888.631 82.6771 886.688 83.026 885.22 83.3281C883.72 83.6615 882.59 84.4271 881.829 85.625C881.079 86.8125 880.652 88.5417 880.548 90.8125H880.751C881.355 89.9688 882.157 89.2969 883.157 88.7969C884.168 88.2865 885.241 88.0312 886.376 88.0312C888.48 88.0312 890.126 88.7083 891.313 90.0625C892.501 91.4167 893.095 93.3125 893.095 95.75C893.095 98.4688 892.402 100.578 891.017 102.078C889.631 103.568 887.709 104.312 885.251 104.312C882.813 104.312 880.907 103.38 879.532 101.516C878.168 99.651 877.485 97.0469 877.485 93.7031ZM885.485 101.984C888.579 101.984 890.126 100 890.126 96.0312C890.126 92.2604 888.725 90.375 885.923 90.375C885.162 90.375 884.423 90.5312 883.704 90.8438C882.996 91.1562 882.35 91.5677 881.767 92.0781C881.194 92.5885 880.725 93.151 880.36 93.7656C880.36 99.2448 882.069 101.984 885.485 101.984ZM905.688 104.312C903.386 104.312 901.616 103.484 900.376 101.828H900.188L900.251 102.469C900.334 103.281 900.376 104.005 900.376 104.641V111.688H897.563V86.8438H899.876L900.251 89.1875H900.376C901.043 88.25 901.813 87.5729 902.688 87.1562C903.563 86.7396 904.574 86.5312 905.72 86.5312C907.949 86.5312 909.678 87.3073 910.907 88.8594C912.147 90.401 912.767 92.5781 912.767 95.3906C912.767 98.1927 912.147 100.38 910.907 101.953C909.668 103.526 907.928 104.312 905.688 104.312ZM905.22 88.8906C903.522 88.8906 902.293 89.3698 901.532 90.3281C900.782 91.2865 900.397 92.7917 900.376 94.8438V95.3906C900.376 97.7135 900.761 99.3958 901.532 100.438C902.303 101.469 903.553 101.984 905.282 101.984C906.72 101.984 907.84 101.401 908.642 100.234C909.454 99.0677 909.86 97.4427 909.86 95.3594C909.86 93.2656 909.454 91.6667 908.642 90.5625C907.84 89.4479 906.699 88.8906 905.22 88.8906ZM932.157 95.3906C932.157 98.1927 931.449 100.38 930.032 101.953C928.616 103.526 926.657 104.312 924.157 104.312C922.605 104.312 921.23 103.953 920.032 103.234C918.834 102.505 917.912 101.464 917.267 100.109C916.621 98.7552 916.298 97.1823 916.298 95.3906C916.298 92.599 916.996 90.4271 918.392 88.875C919.787 87.3125 921.746 86.5312 924.267 86.5312C926.683 86.5312 928.6 87.3281 930.017 88.9219C931.444 90.5052 932.157 92.6615 932.157 95.3906ZM919.204 95.3906C919.204 97.5469 919.626 99.1875 920.47 100.312C921.324 101.427 922.579 101.984 924.235 101.984C925.871 101.984 927.116 101.427 927.97 100.312C928.824 99.1875 929.251 97.5469 929.251 95.3906C929.251 93.2344 928.819 91.6146 927.954 90.5312C927.1 89.4375 925.845 88.8906 924.188 88.8906C920.866 88.8906 919.204 91.0573 919.204 95.3906ZM947.751 104H944.938V86.8438H959.438V104H956.626V89.25H947.751V104ZM979.813 95.3906C979.813 98.1927 979.105 100.38 977.688 101.953C976.272 103.526 974.313 104.312 971.813 104.312C970.261 104.312 968.886 103.953 967.688 103.234C966.491 102.505 965.569 101.464 964.923 100.109C964.277 98.7552 963.954 97.1823 963.954 95.3906C963.954 92.599 964.652 90.4271 966.048 88.875C967.444 87.3125 969.402 86.5312 971.923 86.5312C974.34 86.5312 976.256 87.3281 977.673 88.9219C979.1 90.5052 979.813 92.6615 979.813 95.3906ZM966.86 95.3906C966.86 97.5469 967.282 99.1875 968.126 100.312C968.98 101.427 970.235 101.984 971.892 101.984C973.527 101.984 974.772 101.427 975.626 100.312C976.48 99.1875 976.907 97.5469 976.907 95.3906C976.907 93.2344 976.475 91.6146 975.61 90.5312C974.756 89.4375 973.501 88.8906 971.845 88.8906C968.522 88.8906 966.86 91.0573 966.86 95.3906ZM991.907 86.8438H994.532V95.1719L1001.5 86.8438H1004.55L997.47 95.1719L1005.16 104H1001.95L994.532 95.2969V104H991.907V95.2969L984.485 104H981.282L988.97 95.1719C985.741 91.3385 983.381 88.5625 981.892 86.8438H984.97L991.907 95.1719V86.8438ZM1018.56 104L1018.02 101.562H1017.89C1017.04 102.635 1016.18 103.365 1015.33 103.75C1014.49 104.125 1013.42 104.312 1012.13 104.312C1010.44 104.312 1009.12 103.87 1008.16 102.984C1007.2 102.099 1006.72 100.849 1006.72 99.2344C1006.72 95.7552 1009.46 93.9323 1014.95 93.7656L1017.86 93.6562V92.6406C1017.86 91.3385 1017.58 90.3802 1017.02 89.7656C1016.45 89.1406 1015.55 88.8281 1014.31 88.8281C1013.41 88.8281 1012.55 88.9635 1011.74 89.2344C1010.93 89.5052 1010.18 89.8073 1009.47 90.1406L1008.61 88.0312C1009.47 87.5729 1010.42 87.2135 1011.44 86.9531C1012.46 86.6927 1013.47 86.5625 1014.47 86.5625C1016.54 86.5625 1018.08 87.0208 1019.09 87.9375C1020.11 88.8542 1020.61 90.3125 1020.61 92.3125V104H1018.56ZM1012.77 102.047C1014.34 102.047 1015.57 101.625 1016.47 100.781C1017.38 99.9271 1017.83 98.7188 1017.83 97.1562V95.6094L1015.3 95.7188C1013.33 95.7917 1011.89 96.1042 1010.99 96.6562C1010.09 97.2083 1009.64 98.0781 1009.64 99.2656C1009.64 100.161 1009.91 100.849 1010.45 101.328C1011.01 101.807 1011.78 102.047 1012.77 102.047ZM1039 104H1036.14V89.1875H1031.09C1030.8 92.9375 1030.41 95.8854 1029.91 98.0312C1029.42 100.167 1028.77 101.734 1027.97 102.734C1027.18 103.724 1026.16 104.219 1024.92 104.219C1024.25 104.219 1023.75 104.146 1023.44 104V101.891C1023.66 101.974 1023.95 102.016 1024.31 102.016C1025.46 102.016 1026.37 100.807 1027.05 98.3906C1027.74 95.974 1028.27 92.125 1028.66 86.8438H1039V104ZM1059.34 95.3906C1059.34 98.1927 1058.64 100.38 1057.22 101.953C1055.8 103.526 1053.84 104.312 1051.34 104.312C1049.79 104.312 1048.42 103.953 1047.22 103.234C1046.02 102.505 1045.1 101.464 1044.45 100.109C1043.81 98.7552 1043.49 97.1823 1043.49 95.3906C1043.49 92.599 1044.18 90.4271 1045.58 88.875C1046.97 87.3125 1048.93 86.5312 1051.45 86.5312C1053.87 86.5312 1055.79 87.3281 1057.2 88.9219C1058.63 90.5052 1059.34 92.6615 1059.34 95.3906ZM1046.39 95.3906C1046.39 97.5469 1046.81 99.1875 1047.66 100.312C1048.51 101.427 1049.77 101.984 1051.42 101.984C1053.06 101.984 1054.3 101.427 1055.16 100.312C1056.01 99.1875 1056.44 97.5469 1056.44 95.3906C1056.44 93.2344 1056.01 91.6146 1055.14 90.5312C1054.29 89.4375 1053.03 88.8906 1051.38 88.8906C1048.05 88.8906 1046.39 91.0573 1046.39 95.3906ZM1077.92 91.1719C1077.92 92.276 1077.61 93.1198 1076.99 93.7031C1076.36 94.276 1075.47 94.6667 1074.31 94.875V95.0156C1075.76 95.2135 1076.81 95.6458 1077.47 96.3125C1078.14 96.9688 1078.47 97.8542 1078.47 98.9688C1078.47 100.594 1077.87 101.839 1076.67 102.703C1075.49 103.568 1073.77 104 1071.53 104H1063.81V86.8438H1071.5C1075.78 86.8438 1077.92 88.2865 1077.92 91.1719ZM1075.66 98.8125C1075.66 97.8542 1075.28 97.1823 1074.53 96.7969C1073.78 96.4115 1072.68 96.2188 1071.24 96.2188H1066.63V101.734H1071.3C1074.2 101.734 1075.66 100.76 1075.66 98.8125ZM1075.17 91.4219C1075.17 90.6198 1074.86 90.0469 1074.24 89.7031C1073.62 89.3594 1072.69 89.1875 1071.44 89.1875H1066.63V93.8906H1070.92C1072.45 93.8906 1073.54 93.7031 1074.19 93.3281C1074.84 92.9427 1075.17 92.3073 1075.17 91.4219ZM1092.84 104L1092.3 101.562H1092.17C1091.32 102.635 1090.46 103.365 1089.61 103.75C1088.77 104.125 1087.7 104.312 1086.41 104.312C1084.72 104.312 1083.4 103.87 1082.44 102.984C1081.48 102.099 1081 100.849 1081 99.2344C1081 95.7552 1083.75 93.9323 1089.24 93.7656L1092.14 93.6562V92.6406C1092.14 91.3385 1091.86 90.3802 1091.3 89.7656C1090.74 89.1406 1089.83 88.8281 1088.59 88.8281C1087.69 88.8281 1086.83 88.9635 1086.02 89.2344C1085.21 89.5052 1084.46 89.8073 1083.75 90.1406L1082.89 88.0312C1083.76 87.5729 1084.7 87.2135 1085.72 86.9531C1086.74 86.6927 1087.75 86.5625 1088.75 86.5625C1090.82 86.5625 1092.37 87.0208 1093.38 87.9375C1094.39 88.8542 1094.89 90.3125 1094.89 92.3125V104H1092.84ZM1087.05 102.047C1088.62 102.047 1089.86 101.625 1090.75 100.781C1091.66 99.9271 1092.11 98.7188 1092.11 97.1562V95.6094L1089.58 95.7188C1087.61 95.7917 1086.17 96.1042 1085.27 96.6562C1084.37 97.2083 1083.92 98.0781 1083.92 99.2656C1083.92 100.161 1084.19 100.849 1084.74 101.328C1085.29 101.807 1086.06 102.047 1087.05 102.047ZM1112.06 89.2188H1106.45V104H1103.67V89.2188H1098.14V86.8438H1112.06V89.2188ZM1118.28 93.8906H1123.38C1127.83 93.8906 1130.06 95.5104 1130.06 98.75C1130.06 100.458 1129.49 101.76 1128.33 102.656C1127.17 103.552 1125.48 104 1123.25 104H1115.47V86.8438H1118.28V93.8906ZM1127.25 98.9062C1127.25 97.9896 1126.93 97.3125 1126.28 96.875C1125.64 96.4375 1124.56 96.2188 1123.05 96.2188H1118.28V101.734H1123.13C1124.45 101.734 1125.46 101.495 1126.17 101.016C1126.89 100.536 1127.25 99.8333 1127.25 98.9062ZM1156.92 91.1719C1156.92 92.276 1156.61 93.1198 1155.99 93.7031C1155.36 94.276 1154.47 94.6667 1153.31 94.875V95.0156C1154.76 95.2135 1155.81 95.6458 1156.47 96.3125C1157.14 96.9688 1157.47 97.8542 1157.47 98.9688C1157.47 100.594 1156.87 101.839 1155.67 102.703C1154.49 103.568 1152.77 104 1150.53 104H1142.81V86.8438H1150.5C1154.78 86.8438 1156.92 88.2865 1156.92 91.1719ZM1154.66 98.8125C1154.66 97.8542 1154.28 97.1823 1153.53 96.7969C1152.78 96.4115 1151.68 96.2188 1150.24 96.2188H1145.63V101.734H1150.3C1153.2 101.734 1154.66 100.76 1154.66 98.8125ZM1154.17 91.4219C1154.17 90.6198 1153.86 90.0469 1153.24 89.7031C1152.62 89.3594 1151.69 89.1875 1150.44 89.1875H1145.63V93.8906H1149.92C1151.45 93.8906 1152.54 93.7031 1153.19 93.3281C1153.84 92.9427 1154.17 92.3073 1154.17 91.4219ZM940.876 125.156V139.938C940.876 142.542 940.09 144.589 938.517 146.078C936.944 147.568 934.761 148.312 931.97 148.312C929.209 148.312 927.069 147.562 925.548 146.062C924.027 144.552 923.267 142.49 923.267 139.875V125.156H926.157V139.969C926.157 141.833 926.652 143.276 927.642 144.297C928.642 145.318 930.142 145.828 932.142 145.828C934.027 145.828 935.475 145.323 936.485 144.312C937.506 143.302 938.017 141.844 938.017 139.938V125.156H940.876ZM954.642 148.312C952.34 148.312 950.569 147.484 949.329 145.828H949.142L949.204 146.469C949.287 147.281 949.329 148.005 949.329 148.641V155.688H946.517V130.844H948.829L949.204 133.188H949.329C949.996 132.25 950.767 131.573 951.642 131.156C952.517 130.74 953.527 130.531 954.673 130.531C956.902 130.531 958.631 131.307 959.86 132.859C961.1 134.401 961.72 136.578 961.72 139.391C961.72 142.193 961.1 144.38 959.86 145.953C958.621 147.526 956.881 148.312 954.642 148.312ZM954.173 132.891C952.475 132.891 951.246 133.37 950.485 134.328C949.735 135.286 949.35 136.792 949.329 138.844V139.391C949.329 141.714 949.715 143.396 950.485 144.438C951.256 145.469 952.506 145.984 954.235 145.984C955.673 145.984 956.793 145.401 957.595 144.234C958.407 143.068 958.813 141.443 958.813 139.359C958.813 137.266 958.407 135.667 957.595 134.562C956.793 133.448 955.652 132.891 954.173 132.891ZM979.548 141.891C979.548 143.88 978.829 145.448 977.392 146.594C975.954 147.74 973.954 148.312 971.392 148.312C968.683 148.312 966.59 147.953 965.11 147.234V144.484C966.079 144.901 967.136 145.229 968.282 145.469C969.438 145.708 970.517 145.828 971.517 145.828C973.225 145.828 974.511 145.5 975.376 144.844C976.241 144.188 976.673 143.286 976.673 142.141C976.673 141.38 976.517 140.755 976.204 140.266C975.892 139.776 975.366 139.318 974.626 138.891C973.897 138.464 972.787 137.979 971.298 137.438C969.183 136.667 967.673 135.76 966.767 134.719C965.86 133.667 965.407 132.312 965.407 130.656C965.407 128.875 966.074 127.458 967.407 126.406C968.751 125.354 970.517 124.828 972.704 124.828C974.985 124.828 977.084 125.255 979.001 126.109L978.11 128.578C976.152 127.766 974.329 127.359 972.642 127.359C971.287 127.359 970.225 127.651 969.454 128.234C968.694 128.818 968.313 129.635 968.313 130.688C968.313 131.438 968.459 132.062 968.751 132.562C969.053 133.052 969.532 133.5 970.188 133.906C970.855 134.312 971.897 134.776 973.313 135.297C975.011 135.922 976.277 136.531 977.11 137.125C977.944 137.708 978.558 138.385 978.954 139.156C979.35 139.917 979.548 140.828 979.548 141.891ZM989.501 146.016C989.866 146.016 990.293 145.979 990.782 145.906C991.272 145.833 991.642 145.75 991.892 145.656V147.812C991.631 147.927 991.225 148.036 990.673 148.141C990.131 148.255 989.579 148.312 989.017 148.312C985.662 148.312 983.985 146.547 983.985 143.016V133.031H981.563V131.688L984.017 130.562L985.142 126.906H986.813V130.844H991.767V133.031H986.813V142.938C986.813 143.927 987.048 144.688 987.517 145.219C987.996 145.75 988.657 146.016 989.501 146.016ZM1010.24 139.391C1010.24 142.193 1009.53 144.38 1008.11 145.953C1006.69 147.526 1004.74 148.312 1002.24 148.312C1000.68 148.312 999.308 147.953 998.11 147.234C996.912 146.505 995.991 145.464 995.345 144.109C994.699 142.755 994.376 141.182 994.376 139.391C994.376 136.599 995.074 134.427 996.47 132.875C997.866 131.312 999.824 130.531 1002.34 130.531C1004.76 130.531 1006.68 131.328 1008.09 132.922C1009.52 134.505 1010.24 136.661 1010.24 139.391ZM997.282 139.391C997.282 141.547 997.704 143.188 998.548 144.312C999.402 145.427 1000.66 145.984 1002.31 145.984C1003.95 145.984 1005.19 145.427 1006.05 144.312C1006.9 143.188 1007.33 141.547 1007.33 139.391C1007.33 137.234 1006.9 135.615 1006.03 134.531C1005.18 133.438 1003.92 132.891 1002.27 132.891C998.944 132.891 997.282 135.057 997.282 139.391ZM1022.7 130.531C1023.46 130.531 1024.14 130.594 1024.72 130.719L1024.38 133.312C1023.74 133.167 1023.12 133.094 1022.52 133.094C1021.61 133.094 1020.77 133.344 1019.99 133.844C1019.21 134.344 1018.61 135.036 1018.17 135.922C1017.74 136.797 1017.52 137.771 1017.52 138.844V148H1014.7V130.844H1017.02L1017.33 133.984H1017.45C1018.11 132.849 1018.89 131.99 1019.78 131.406C1020.68 130.823 1021.65 130.531 1022.7 130.531ZM1038.2 148L1037.66 145.562H1037.53C1036.68 146.635 1035.82 147.365 1034.97 147.75C1034.13 148.125 1033.06 148.312 1031.77 148.312C1030.08 148.312 1028.76 147.87 1027.8 146.984C1026.84 146.099 1026.36 144.849 1026.36 143.234C1026.36 139.755 1029.11 137.932 1034.59 137.766L1037.5 137.656V136.641C1037.5 135.339 1037.22 134.38 1036.66 133.766C1036.09 133.141 1035.19 132.828 1033.95 132.828C1033.05 132.828 1032.19 132.964 1031.38 133.234C1030.57 133.505 1029.82 133.807 1029.11 134.141L1028.25 132.031C1029.12 131.573 1030.06 131.214 1031.08 130.953C1032.1 130.693 1033.11 130.562 1034.11 130.562C1036.18 130.562 1037.72 131.021 1038.74 131.938C1039.75 132.854 1040.25 134.312 1040.25 136.312V148H1038.2ZM1032.41 146.047C1033.98 146.047 1035.21 145.625 1036.11 144.781C1037.02 143.927 1037.47 142.719 1037.47 141.156V139.609L1034.94 139.719C1032.97 139.792 1031.53 140.104 1030.63 140.656C1029.73 141.208 1029.28 142.078 1029.28 143.266C1029.28 144.161 1029.55 144.849 1030.09 145.328C1030.65 145.807 1031.42 146.047 1032.41 146.047ZM1052.11 146.016C1053.84 146.016 1055.09 145.552 1055.88 144.625C1056.67 143.688 1057.06 142.188 1057.06 140.125V139.453C1057.06 137.161 1056.67 135.495 1055.88 134.453C1055.08 133.411 1053.81 132.891 1052.05 132.891C1050.61 132.891 1049.5 133.464 1048.7 134.609C1047.92 135.745 1047.53 137.37 1047.53 139.484C1047.53 141.609 1047.91 143.229 1048.67 144.344C1049.44 145.458 1050.59 146.016 1052.11 146.016ZM1057.03 147.844L1057.13 145.734H1057C1055.84 147.453 1054.07 148.312 1051.69 148.312C1049.47 148.312 1047.74 147.542 1046.49 146C1045.25 144.448 1044.63 142.266 1044.63 139.453C1044.63 136.693 1045.25 134.516 1046.5 132.922C1047.76 131.328 1049.48 130.531 1051.66 130.531C1053.98 130.531 1055.77 131.396 1057.03 133.125H1057.2L1057.58 130.844H1059.81V148.281C1059.81 150.74 1059.19 152.589 1057.94 153.828C1056.7 155.068 1054.77 155.688 1052.14 155.688C1049.64 155.688 1047.58 155.323 1045.97 154.594V152C1047.64 152.896 1049.75 153.344 1052.3 153.344C1053.76 153.344 1054.91 152.917 1055.75 152.062C1056.61 151.208 1057.03 150.026 1057.03 148.516V147.844ZM1072.56 148.312C1069.99 148.312 1067.97 147.536 1066.5 145.984C1065.04 144.422 1064.31 142.276 1064.31 139.547C1064.31 136.797 1065 134.609 1066.36 132.984C1067.72 131.349 1069.57 130.531 1071.89 130.531C1074.05 130.531 1075.77 131.229 1077.05 132.625C1078.33 134.01 1078.97 135.891 1078.97 138.266V139.969H1067.22C1067.27 141.917 1067.77 143.396 1068.7 144.406C1069.64 145.417 1070.97 145.922 1072.69 145.922C1073.61 145.922 1074.47 145.844 1075.3 145.688C1076.12 145.521 1077.08 145.203 1078.19 144.734V147.203C1077.24 147.609 1076.35 147.896 1075.52 148.062C1074.68 148.229 1073.7 148.312 1072.56 148.312ZM1071.86 132.828C1070.52 132.828 1069.45 133.26 1068.67 134.125C1067.89 134.99 1067.43 136.193 1067.28 137.734H1076.02C1076 136.13 1075.63 134.911 1074.91 134.078C1074.19 133.245 1073.17 132.828 1071.86 132.828Z" fill="white"/>
<path d="M1269 566.499H738.001C735.898 543.832 743.075 531.996 766.501 534.999C767.754 499.033 789.258 485.133 821.001 487.499C813.957 415.374 901.7 355.206 968.501 376.999C972.079 332.348 1017.21 317.253 1050 329.999C1089.61 274.894 1156.59 309.874 1154.5 349C1226.06 348.701 1234.5 417 1217.5 438.499C1245.2 449.77 1252.23 475.777 1239 498.499C1269.26 510.225 1275.4 537.561 1269 566.499Z" fill="#F2F9FF"/>
<path d="M886.605 518.873L875.201 535.8L863.5 541.632L856.118 531.918L858.227 528.844L863.995 514.925L886.605 518.873Z" fill="#FFCDB0"/>
<path d="M866.933 601.177L876.768 587.245L905.995 587.787L884.429 609.062L884.42 609.566L872.354 607.83L866.933 601.177Z" fill="#FFCDB0"/>
<path d="M877.501 551.449C878.333 544.462 877.924 540.921 875.362 535.392C866.624 536.102 862.567 535.047 856.233 531.623C832.241 540.691 809.354 540.866 810.978 550.576L877.501 551.449Z" fill="white"/>
<path d="M877.502 551.447L810.979 550.574C811.311 552.67 811.711 553.695 813.271 554.905L877.446 555.747C877.909 554.242 877.922 553.301 877.502 551.447Z" fill="#F0F0F0"/>
<path d="M882.123 625.264C884.963 618.826 885.608 615.321 884.776 609.284C876.213 607.406 872.642 605.21 867.588 600.082C841.993 601.733 820.055 595.202 818.767 604.963L882.123 625.264Z" fill="white"/>
<path d="M882.124 625.262L818.768 604.961C818.472 607.062 818.555 608.159 819.692 609.773L880.812 629.357C881.695 628.054 881.982 627.157 882.124 625.262Z" fill="#F0F0F0"/>
<path d="M925.715 399.997C953.489 395.375 1010.95 425.342 1020.23 430.308L1024.5 429.498L1023.72 432.998L1051.5 457.998L1001.9 479.237C968.709 463.261 964.871 456.892 936.308 444.761C916.546 477.8 904.95 496.39 883.792 527.588L859.307 518.093C859.272 518.152 859.257 518.147 859.263 518.076L859.307 518.093C860.745 515.662 896.164 404.915 925.715 399.997Z" fill="#5A5A5A"/>
<path d="M987.751 472.059C968.611 461.571 958.144 454.416 937.129 445.122C936.665 444.916 936.109 445.095 935.848 445.531C916.6 477.691 905.308 495.837 883.794 527.586L872.514 523.16C876.108 523.621 880.709 523.645 882.179 522.403C897.827 503.412 933.413 443.016 933.413 443.016C934.543 441.385 936.094 441.354 937.551 441.824C961.709 449.621 981.008 464.05 986.915 463.399C997.624 462.218 1014.08 450.28 1036.5 447.998L1048.35 453.567C1048.35 453.567 1007.14 482.682 987.751 472.059Z" fill="#484848"/>
<path d="M1042.8 453.482L1098.88 474.167C1083.29 504.524 1085.5 515.046 964.104 522.882C935.674 560.32 916.501 578.079 893.381 603.403L870.134 591.658C892.718 554.141 907.412 528.254 931.153 497.479C932.723 495.444 934.681 493.735 936.923 492.478C968.485 474.798 998.642 466.427 1042.8 453.482Z" fill="#5A5A5A"/>
<path d="M964.048 522.772C1055.64 519.64 1088.76 509.769 1099 474.498L1081.99 469.357C1073.8 498.932 1036.68 506.904 960.344 518.437C911.803 582.871 893.23 596.622 893.23 596.622C889.942 597.999 884.759 597.42 880.623 596.893L893.23 604.498C923.912 573.708 939.505 554.946 964.048 522.772Z" fill="#484848"/>
<path d="M1051.84 316.804C1047.72 324.178 1043.36 323.497 1040.04 329.304L1040.85 334.729L1027.72 335.225L1026.92 329.023C1024.92 327.135 1023.24 324.937 1024.66 309.95C1024.43 306.271 1024.33 304.288 1023.52 299.249C1023.41 296.271 1026.28 295.978 1026.77 298.769C1027.48 303.065 1028.54 306.63 1029.08 307.714C1029.44 308.079 1029.87 307.957 1030.29 307.565C1030.71 307.173 1030.67 300.267 1030.45 295.121C1030 291.306 1034.01 290.359 1034.3 294.885C1034.44 299.038 1034.18 306.088 1034.84 307.565C1035.04 308.022 1035.59 307.715 1035.59 307.715C1036.13 306.63 1036.52 299.696 1036.96 293.384C1037.03 289.379 1041.05 289.162 1041.01 293.383C1040.97 297.27 1039.93 305.546 1039.93 308.799C1039.93 309.398 1040.59 310.306 1041.01 309.883C1042.09 308.799 1043.44 304.532 1045.35 300.125C1047.04 296.547 1049.56 298.343 1048.6 301.209C1046.06 308.793 1043.72 313.136 1042.33 320.759C1044.42 320.329 1049.82 312.926 1051.84 316.804Z" fill="#FFCDB0"/>
<path d="M1026.1 330.941C1032.88 333.309 1034.28 332.04 1041.14 331.655C1047.06 352.974 1049.12 367.559 1057.99 371.305C1066.53 353.508 1081.91 345.699 1106.17 344.832C1115.77 358.234 1122.03 356.86 1133.48 354.201C1178.34 379.943 1146.54 452.187 1128.66 460.893C1125.07 462.645 1120.89 463.518 1116.23 463.64C1111.53 467.764 1106.96 470.936 1099.26 474.76C1085 472.499 1062.5 464.999 1045.5 454.499C1034 445.999 1025.68 436.999 1023.59 432.999C1021.5 428.999 1020.98 426.289 1023.59 421.29C1029.67 419.968 1037.84 412.405 1041.14 409.498C1016.49 384.706 1023.52 356.601 1026.1 330.941Z" fill="#5E9AD2"/>
<path d="M1105.5 471.5C1091.18 471.5 1062.54 458.649 1031 438.499L1038.5 438.999C1040.13 439.667 1040.98 443.38 1042.5 444C1069.11 454.83 1081.67 455.506 1116.33 463.46C1114.23 465.446 1108.08 469.961 1105.5 471.5Z" fill="#4D8EC8"/>
<path d="M1115.53 433.389C1114.29 439.272 1050.5 432 1050.5 432L1046.5 435.999L1043 433.499L1045.99 429.499C1046.79 428.888 1048 428.999 1061 425.999C1074 422.999 1091 421.499 1098.18 417.441C1105.36 413.383 1124.4 389.698 1124.4 389.698C1119.43 414.492 1117.56 423.672 1115.53 433.389Z" fill="#4D8EC8"/>
<path d="M1050.5 404.998C1057.55 405.633 1066.22 403.165 1074.5 394.998C1074.5 413.998 1060 420.498 1043 423.498C1036.7 421.98 1036.82 402.259 1034 397.498C1037.51 398.571 1043.46 404.364 1050.5 404.998Z" fill="#4D8EC8"/>
<path d="M1133.64 354.295L1141.72 323.633L1112.66 330.566L1104.47 349.209C1109.92 364.755 1126.24 357.971 1133.64 354.295Z" fill="#FFCDB0"/>
<path d="M1142.19 323.118C1149.59 307.271 1111.17 333.952 1111.17 333.952L1107.02 343.521C1124.72 347.087 1134.78 338.964 1142.19 323.118Z" fill="#E9B598"/>
<path d="M1143.58 318.057C1144.29 333.511 1086.69 371.587 1103.7 294.596C1120.34 274.087 1145.59 289.347 1141.51 309.16L1142.07 307.89C1152.64 289.57 1159.02 318.65 1143.58 318.057Z" fill="#FFCDB0"/>
<path d="M1104.45 295.69C1094.44 312.121 1069.21 281.324 1093.55 280.309C1103.16 276.359 1092.57 267.012 1090.23 274.06C1085.33 266.337 1099.23 255.173 1109.92 266.045C1114.7 272.877 1117.96 263.266 1123.08 261.976C1134.52 259.828 1150.12 266.897 1149.54 275.347C1167.61 281.976 1162.17 293.752 1151.46 303.183C1145.91 301.104 1144.28 305.416 1141.16 310.525C1137.48 291.063 1135.71 287.796 1119.5 290.277C1118.26 298.649 1109.19 297.695 1104.9 295.884C1104.74 295.815 1104.59 295.75 1104.45 295.69Z" fill="#5A5A5A"/>
<ellipse cx="1126.57" cy="311.579" rx="2.4191" ry="3.41929" transform="rotate(20.4359 1126.57 311.579)" fill="#383838"/>
<ellipse cx="1114.39" cy="323.382" rx="4.0564" ry="1.93908" transform="rotate(13.574 1114.39 323.382)" fill="#E9B598"/>
<ellipse cx="1132.81" cy="320.038" rx="4.81647" ry="3.10224" transform="rotate(-15.3172 1132.81 320.038)" fill="#FFB393"/>
<path d="M1108.78 330.438C1108.57 330.445 1108.39 330.583 1108.33 330.783C1108.26 330.983 1108.33 331.202 1108.49 331.331C1111.52 333.706 1114.4 334.476 1117.29 334.015C1120.14 333.559 1122.94 331.908 1125.84 329.598C1126.02 329.451 1126.08 329.195 1125.98 328.984C1125.87 328.773 1125.63 328.664 1125.4 328.723C1119.95 330.139 1116.25 330.234 1111.66 330.353C1110.74 330.377 1109.79 330.402 1108.78 330.438Z" fill="white" stroke="#FFB393" stroke-linecap="round" stroke-linejoin="round"/>
<path d="M1107.09 319.655C1106.25 321.149 1103.69 321.307 1101.37 320.006C1100.12 318.853 1100.68 315.953 1100.67 314.215C1100.67 313.055 1102.08 313.293 1104.4 314.594C1106.72 315.894 1107.92 318.16 1107.09 319.655Z" fill="#FFB393"/>
<ellipse cx="1108.92" cy="309.734" rx="2.30288" ry="3.34814" transform="rotate(1.82626 1108.92 309.734)" fill="#383838"/>
<path d="M1108.34 303.297C1106.15 303.488 1100.99 303.915 1100.84 302.217C1100.69 300.519 1105.76 299.05 1107.95 298.859C1110.14 298.668 1112 299.506 1112.1 300.732C1112.21 301.957 1110.53 303.106 1108.34 303.297Z" fill="#5A5A5A"/>
<path d="M1128.05 305.228C1130.27 305.711 1135.66 307.494 1136.02 305.829C1136.38 304.163 1131.22 301.358 1128.99 300.874C1126.77 300.391 1124.76 300.974 1124.5 302.176C1124.23 303.378 1125.82 304.744 1128.05 305.228Z" fill="#5A5A5A"/>
<path d="M1133.5 354.499C1118.96 357.969 1111.34 358.863 1104.5 346.998L1091.5 352.999L1098 371.499L1141.5 365.499L1133.5 354.499Z" fill="#5E9AD2"/>
<path d="M1048.5 435.999L1024 428.499C1026 434.499 1028 438.999 1044.5 444.499L1048.5 435.999Z" fill="#FFCDB0"/>
<path d="M1048.6 427.238L1036.62 370.795C1036.19 368.75 1034.58 367.158 1032.53 366.744L962.881 352.692C959.213 351.952 955.972 355.183 956.702 358.854L968.22 416.79C968.633 418.865 970.252 420.489 972.326 420.908L1071.49 440.916C1073.04 441.228 1074.55 440.226 1074.86 438.678C1075.17 437.129 1074.17 435.621 1072.62 435.309L1052.7 431.288C1050.65 430.875 1049.04 429.283 1048.6 427.238Z" fill="#CECECE"/>
<g filter="url(#filter2_f)">
<path d="M992.437 398.757C995.537 402.692 1000.8 403.478 1004.19 400.512C1006 398.921 1006.91 396.575 1006.89 394.134C1001.49 396.229 996.442 388.844 999.308 384.614C997.066 384.174 994.751 384.693 992.96 386.261C989.571 389.227 989.337 394.821 992.437 398.757Z" fill="white"/>
</g>
<path d="M992.4 398.545C995.5 402.48 1000.76 403.266 1004.15 400.3C1005.97 398.71 1006.88 396.363 1006.85 393.922C1001.46 396.017 996.405 388.632 999.271 384.402C997.029 383.962 994.714 384.481 992.922 386.049C989.534 389.015 989.3 394.61 992.4 398.545Z" fill="white"/>
<path d="M1054 504.995C1026.5 502.499 996.51 517.849 983.5 535.499L999.5 539.119L1130.39 504.995L1112 488.998C1091.76 477.725 1061.22 492.749 1054 504.995Z" fill="#F2F9FF" fill-opacity="0.8"/>
<path d="M884 553.217C879.5 551.217 859.414 548.213 851.5 554.999C849.562 551.735 830 548.999 823 554.499C817 550.499 810 551.499 808 556.499C826 561.999 858.501 562.999 858.501 562.999C858.501 562.999 888.5 555.217 884 553.217Z" fill="#F2F9FF" fill-opacity="0.8"/>
<path d="M1142 443.499C1138.84 425.696 1152.5 416.499 1163.5 419.499L1177.5 456.999L1157.5 481.499L1130.39 462.999C1127.5 453.499 1131.55 444.671 1142 443.499Z" fill="#F2F9FF" fill-opacity="0.8"/>
<defs>
<filter id="filter0_dddd" x="-8.72917" y="-12.2208" width="1297.46" height="804.442" filterUnits="userSpaceOnUse" color-interpolation-filters="sRGB">
<feFlood flood-opacity="0" result="BackgroundImageFix"/>
<feColorMatrix in="SourceAlpha" type="matrix" values="0 0 0 0 0 0 0 0 0 0 0 0 0 0 0 0 0 0 127 0" result="hardAlpha"/>
<feOffset dy="3.49167"/>
<feGaussianBlur stdDeviation="4.36458"/>
<feColorMatrix type="matrix" values="0 0 0 0 0.0901961 0 0 0 0 0.272157 0 0 0 0 0.545098 0 0 0 0.03 0"/>
<feBlend mode="normal" in2="BackgroundImageFix" result="effect1_dropShadow"/>
<feColorMatrix in="SourceAlpha" type="matrix" values="0 0 0 0 0 0 0 0 0 0 0 0 0 0 0 0 0 0 127 0" result="hardAlpha"/>
<feOffset dy="-3.49167"/>
<feGaussianBlur stdDeviation="4.36458"/>
<feColorMatrix type="matrix" values="0 0 0 0 0.0901961 0 0 0 0 0.270588 0 0 0 0 0.545098 0 0 0 0.03 0"/>
<feBlend mode="normal" in2="effect1_dropShadow" result="effect2_dropShadow"/>
<feColorMatrix in="SourceAlpha" type="matrix" values="0 0 0 0 0 0 0 0 0 0 0 0 0 0 0 0 0 0 127 0" result="hardAlpha"/>
<feOffset dx="3.49167"/>
<feGaussianBlur stdDeviation="1.74583"/>
<feColorMatrix type="matrix" values="0 0 0 0 0.0901961 0 0 0 0 0.272157 0 0 0 0 0.545098 0 0 0 0.03 0"/>
<feBlend mode="normal" in2="effect2_dropShadow" result="effect3_dropShadow"/>
<feColorMatrix in="SourceAlpha" type="matrix" values="0 0 0 0 0 0 0 0 0 0 0 0 0 0 0 0 0 0 127 0" result="hardAlpha"/>
<feOffset dx="-3.49167"/>
<feGaussianBlur stdDeviation="1.74583"/>
<feColorMatrix type="matrix" values="0 0 0 0 0.0901961 0 0 0 0 0.272157 0 0 0 0 0.545098 0 0 0 0.03 0"/>
<feBlend mode="normal" in2="effect3_dropShadow" result="effect4_dropShadow"/>
<feBlend mode="normal" in="SourceGraphic" in2="effect4_dropShadow" result="shape"/>
</filter>
<filter id="filter1_dddd" x="825.001" y="639" width="349.333" height="82" filterUnits="userSpaceOnUse" color-interpolation-filters="sRGB">
<feFlood flood-opacity="0" result="BackgroundImageFix"/>
<feColorMatrix in="SourceAlpha" type="matrix" values="0 0 0 0 0 0 0 0 0 0 0 0 0 0 0 0 0 0 127 0" result="hardAlpha"/>
<feOffset dy="3"/>
<feGaussianBlur stdDeviation="4"/>
<feColorMatrix type="matrix" values="0 0 0 0 0.0901961 0 0 0 0 0.272157 0 0 0 0 0.545098 0 0 0 0.05 0"/>
<feBlend mode="normal" in2="BackgroundImageFix" result="effect1_dropShadow"/>
<feColorMatrix in="SourceAlpha" type="matrix" values="0 0 0 0 0 0 0 0 0 0 0 0 0 0 0 0 0 0 127 0" result="hardAlpha"/>
<feOffset dy="-3"/>
<feGaussianBlur stdDeviation="4"/>
<feColorMatrix type="matrix" values="0 0 0 0 0.0901961 0 0 0 0 0.270588 0 0 0 0 0.545098 0 0 0 0.05 0"/>
<feBlend mode="normal" in2="effect1_dropShadow" result="effect2_dropShadow"/>
<feColorMatrix in="SourceAlpha" type="matrix" values="0 0 0 0 0 0 0 0 0 0 0 0 0 0 0 0 0 0 127 0" result="hardAlpha"/>
<feOffset dx="3"/>
<feGaussianBlur stdDeviation="2"/>
<feColorMatrix type="matrix" values="0 0 0 0 0.0901961 0 0 0 0 0.272157 0 0 0 0 0.545098 0 0 0 0.03 0"/>
<feBlend mode="normal" in2="effect2_dropShadow" result="effect3_dropShadow"/>
<feColorMatrix in="SourceAlpha" type="matrix" values="0 0 0 0 0 0 0 0 0 0 0 0 0 0 0 0 0 0 127 0" result="hardAlpha"/>
<feOffset dx="-3"/>
<feGaussianBlur stdDeviation="2"/>
<feColorMatrix type="matrix" values="0 0 0 0 0.0901961 0 0 0 0 0.272157 0 0 0 0 0.545098 0 0 0 0.03 0"/>
<feBlend mode="normal" in2="effect3_dropShadow" result="effect4_dropShadow"/>
<feBlend mode="normal" in="SourceGraphic" in2="effect4_dropShadow" result="shape"/>
</filter>
<filter id="filter2_f" x="987.558" y="381.765" width="22.0299" height="23.2433" filterUnits="userSpaceOnUse" color-interpolation-filters="sRGB">
<feFlood flood-opacity="0" result="BackgroundImageFix"/>
<feBlend mode="normal" in="SourceGraphic" in2="BackgroundImageFix" result="shape"/>
<feGaussianBlur stdDeviation="1.34947" result="effect1_foregroundBlur"/>
</filter>
<linearGradient id="paint0_linear" x1="48.3333" y1="25" x2="48.3333" y2="71.6667" gradientUnits="userSpaceOnUse">
<stop stop-color="#5E9AD2"/>
<stop offset="1" stop-color="#A4D9FF"/>
</linearGradient>
</defs>
</svg>
