<svg width="24" height="24" viewBox="0 0 24 24" fill="none" xmlns="http://www.w3.org/2000/svg">
<path d="M1 11.5L0.416655 11.0286L0.0357337 11.5L0.416655 11.9714L1 11.5ZM11 12.25C11.4142 12.25 11.75 11.9142 11.75 11.5C11.75 11.0858 11.4142 10.75 11 10.75V12.25ZM4.8611 5.52861L0.416655 11.0286L1.58335 11.9714L6.02779 6.47139L4.8611 5.52861ZM0.416655 11.9714L4.8611 17.4714L6.02779 16.5286L1.58335 11.0286L0.416655 11.9714ZM1 12.25H11V10.75H1V12.25Z" fill="#9C9C9C"/>
<path d="M13.3326 21.364L13.4577 20.6245L13.3326 21.364ZM10.4723 20.4009L11.0452 19.9168L10.4723 20.4009ZM15.9989 21.8152L15.8737 22.5547L15.9989 21.8152ZM21.9363 21.7411L21.4522 21.1683L21.9363 21.7411ZM21.9363 2.25887L21.4522 2.83174L21.9363 2.25887ZM13.4577 3.37551L16.124 2.9243L15.8737 1.44532L13.2074 1.89654L13.4577 3.37551ZM22.25 8.1007V15.8993H23.75V8.1007H22.25ZM16.124 21.0757L13.4577 20.6245L13.2074 22.1035L15.8737 22.5547L16.124 21.0757ZM10.75 7.74513V6.57995H9.25V7.74513H10.75ZM10.75 17.42V16.4726H9.25V17.42H10.75ZM13.4577 20.6245C12.6428 20.4866 12.1002 20.3934 11.6983 20.2727C11.3165 20.1581 11.1521 20.0433 11.0452 19.9168L9.89948 20.8849C10.2649 21.3174 10.7347 21.5495 11.2669 21.7093C11.7791 21.8631 12.4304 21.972 13.2074 22.1035L13.4577 20.6245ZM9.25 17.42C9.25 18.2081 9.24864 18.8685 9.31481 19.3991C9.38356 19.9505 9.53402 20.4524 9.89948 20.8849L11.0452 19.9168C10.9383 19.7903 10.8526 19.6091 10.8033 19.2135C10.7514 18.7971 10.75 18.2466 10.75 17.42H9.25ZM22.25 15.8993C22.25 17.5699 22.2482 18.7423 22.1245 19.6134C22.0037 20.4638 21.7836 20.8883 21.4522 21.1683L22.4203 22.314C23.1527 21.6952 23.4644 20.8464 23.6096 19.8244C23.7518 18.8231 23.75 17.524 23.75 15.8993H22.25ZM15.8737 22.5547C17.4756 22.8258 18.7562 23.0443 19.7672 23.0712C20.7991 23.0986 21.688 22.9328 22.4203 22.314L21.4522 21.1683C21.1208 21.4483 20.6656 21.5945 19.807 21.5717C18.9275 21.5483 17.7712 21.3545 16.124 21.0757L15.8737 22.5547ZM16.124 2.9243C17.7712 2.64554 18.9275 2.45168 19.807 2.42832C20.6656 2.40551 21.1208 2.55173 21.4522 2.83174L22.4203 1.686C21.688 1.06717 20.7991 0.901436 19.7672 0.928846C18.7562 0.955699 17.4756 1.17423 15.8737 1.44532L16.124 2.9243ZM23.75 8.1007C23.75 6.47598 23.7518 5.17691 23.6096 4.17564C23.4644 3.15363 23.1527 2.30483 22.4203 1.686L21.4522 2.83174C21.7836 3.11175 22.0037 3.5362 22.1245 4.38657C22.2482 5.25766 22.25 6.43009 22.25 8.1007H23.75ZM13.2074 1.89654C12.4304 2.02803 11.7791 2.13688 11.2669 2.29066C10.7347 2.45046 10.2649 2.68256 9.89948 3.11506L11.0452 4.0832C11.1521 3.9567 11.3165 3.84195 11.6983 3.7273C12.1002 3.60663 12.6428 3.51342 13.4577 3.37551L13.2074 1.89654ZM10.75 6.57995C10.75 5.75345 10.7514 5.2029 10.8033 4.78651C10.8526 4.39088 10.9383 4.20969 11.0452 4.0832L9.89948 3.11506C9.53402 3.54757 9.38356 4.04951 9.31481 4.60091C9.24864 5.13155 9.25 5.79191 9.25 6.57995H10.75Z" fill="#9C9C9C"/>
</svg>
